<?xml version="1.0" encoding="UTF-8"?>
<svg id="Calque_2" data-name="Calque 2" xmlns="http://www.w3.org/2000/svg" viewBox="0 0 251 206.19">
  <defs>
    <style>
      .cls-1 {
        fill: none;
        stroke: #000;
        stroke-miterlimit: 10;
      }
    </style>
  </defs>
  <g id="Calque_1-2" data-name="Calque 1">
    <path class="cls-1" d="M145.22.74c-.27.21-.47.23-.74.08-.21-.12-.41-.18-.45-.14-.02.04-.72,1.02-1.56,2.21-.84,1.17-1.54,2.19-1.58,2.23s-.55-.14-1.15-.39l-1.11-.45-1.52,1.64c-.86.92-1.54,1.74-1.56,1.86,0,.1.55.61,1.23,1.11.66.53,1.6,1.29,2.09,1.7.84.74.96.78,2.64.92.98.06,1.88.21,2.01.33.12.1.23.47.23.8,0,.82-1.04,1.84-2.01,2.01-.39.06-.82.23-.94.37-.12.16-.39.27-.59.27s-.39.16-.47.37c-.25.84-.84,1.09-2.31,1.02-1.23-.04-1.47-.12-1.82-.55-.39-.49-.45-.51-1.84-.37-1.78.16-2.29.47-2.44,1.43-.2,1.17-.23,1.23-1.35,1.74-1.02.47-1.06.51-1.17,1.43-.08.59-.04,1.15.1,1.45.12.27.18.72.1,1-.12.47-.21.51-1.17.51-.68,0-1.13.1-1.29.29-.55.66-.96.55-2.76-.82-1.41-1.07-1.76-1.45-1.86-1.95-.06-.35-.21-.64-.33-.64-.1,0-.29-.12-.41-.27-.18-.23-.41-.25-1.09-.12-.68.12-.92.1-1.04-.12-.08-.16-.51-.45-.94-.68-.43-.21-1.23-.84-1.78-1.41-.88-.9-1-.98-1.23-.66-.14.18-.37.33-.53.33s-.45.37-.64.82c-.2.47-.55,1.25-.8,1.74-.25.51-.47,1.07-.47,1.25,0,.2-.16.84-.33,1.41-.37,1.15-1.06,1.72-2.01,1.66-.35-.02-.55.1-.68.41-.12.23-.47.51-.82.61-.47.14-.64.33-.72.78-.08.31-.27.74-.45.94-.25.29-.27.45-.08.86.2.43.18.59-.12.9-.47.53-1.31.94-1.88.94-.31,0-.51.14-.59.37-.06.23-.33.41-.78.49-.37.08-.78.25-.92.41s-.39.29-.59.29c-.18,0-.76.21-1.29.49s-1.11.43-1.29.37c-.2-.06-.53,0-.76.12-.35.2-.51.16-1-.2-.53-.39-.66-.41-1.8-.21-.68.12-1.9.21-2.74.21-1.31,0-1.66-.08-2.81-.66-1.43-.7-2.81-1.19-4.05-1.39-.43-.08-1.29-.35-1.9-.63-.96-.43-1.33-.49-2.78-.43l-1.66.08.82-.43c.45-.23.98-.43,1.15-.45.18,0,.37-.08.43-.18.14-.21-.96-2.91-1.39-3.38-.27-.31-.27-.39.02-.84.25-.39.27-.59.1-.9-.18-.35-.14-.49.27-.94.61-.63.92-2.23.49-2.48-.23-.14-2.89-5.3-2.89-5.61,0-.04.7-.55,1.56-1.11,1.76-1.15,1.92-1.54,1.02-2.4-.51-.49-.63-.51-1.43-.37-1.02.18-4.96-.02-6.53-.35-.61-.12-1.15-.2-1.19-.14-.21.2-.53,4.51-.33,4.57.12.04.35.18.53.31.31.21.31.45,0,3.46-.18,1.78-.41,3.32-.51,3.46-.18.21-1.15.39-2.89.53-.49.02-1.06.12-1.29.2-.21.06-1.04,0-1.82-.14-.78-.16-1.45-.2-1.5-.1-.14.23.1,1.31.47,2.01.21.45.27,1.17.25,3.2-.02,1.47-.08,2.68-.12,2.72s-.37-.04-.76-.18c-.53-.2-1.04-.2-2.29-.04-.98.14-1.8.16-2.07.04-.27-.1-.64-.1-.96.02-.37.16-.66.1-1.29-.21s-.9-.35-1.31-.2c-1.19.45-4.61.59-5.34.2-.61-.33-1.76-.23-2.05.16-.14.18-.25.61-.25.96,0,.8-1.02,3.3-1.6,3.93-.25.25-1.15,1.86-2.01,3.54-1.45,2.81-1.62,3.11-2.44,3.56-.78.47-.88.59-.94,1.31-.04.61.06.92.41,1.35.27.31.8,1.11,1.19,1.76.45.78,1.15,1.58,2.05,2.31,1.66,1.37,2.72,2.5,2.85,3.11.12.41-.55,2.78-.94,3.4-.21.33-1.68.31-2.72-.02-.47-.16-1.09-.33-1.41-.41-.33-.06-.88-.37-1.23-.68-.66-.59-1.72-.98-2.68-.98-.61,0-1.97-.78-3.4-1.92-.8-.63-2.79-1.41-3.67-1.41-.21,0-.68-.21-1.06-.49s-.88-.49-1.13-.49-.86-.27-1.35-.61l-.88-.61-1.41.41c-1.54.47-2.36,1.19-3.05,2.72-.29.64-.57.92-1.25,1.21-.47.21-.96.53-1.09.68s-.31.29-.41.29c-.43,0-2.38.86-2.87,1.25-.66.59-1.58.78-2.29.51-.29-.12-.59-.16-.64-.1s-.12.63-.14,1.27c-.02,1,.02,1.21.37,1.45.23.14.53.66.66,1.17.25,1,.37,1.04,1.7.59.49-.16,1.06-.27,1.23-.23.18.02.74-.2,1.27-.51.51-.29,1.31-.66,1.8-.82.84-.23.9-.23,1.17.2.96,1.45,1.21,5.51.47,7.15-.82,1.82-1.74,4.36-1.74,4.85,0,.27-.12.64-.27.8-.23.27-.23.49,0,1.58.45,2.07.04,3.46-1.11,3.81-.23.08-1.07.02-1.86-.12-1.35-.23-1.47-.29-2.03-1.09-.33-.47-.72-.84-.86-.84s-.37.53-.55,1.21-.59,2.27-.92,3.54-.61,2.68-.61,3.11c0,1.02-.66,3.73-1.19,4.96-.66,1.49-.94,2.95-1.15,6.37-.12,1.76-.25,3.36-.29,3.58-.25,1.17.29,1.15,7.41-.29l1.76-.35.53.55c.31.29.98.78,1.49,1.07.51.31,1.56.98,2.33,1.5.76.51,1.45.94,1.52.94.37,0,3.44,2.03,3.44,2.27,0,.16-1.35,1.78-2.99,3.63-3.81,4.34-5.3,6.1-7.78,9.34-3.15,4.1-4.28,5.45-4.63,5.55-2.72.74-3.13.94-3.24,1.52-.06.33-.12.78-.12,1.02,0,.21-.31,1.02-.68,1.76-.37.76-.68,1.45-.68,1.54s-.21.43-.49.76c-.45.55-.49.72-.49,2.72,0,1.29.1,2.33.23,2.58.39.74.29,2.66-.21,3.87l-.47,1.11.41.59c.23.31.64.72.92.9s.49.51.49.76c0,.59.14.74,1.33,1.49,1.13.72,1.99,1.95,1.99,2.85,0,.43-.31.88-1.43,1.97-2.52,2.5-2.68,2.72-2.56,3.75l.12.92-1.6,1.52-1.58,1.54-.9-.29c-.49-.16-1-.25-1.11-.21-.12.06-.39.47-.61.92-.31.68-.66.98-1.92,1.68-1.29.72-1.52.92-1.45,1.27.06.23.25,1.27.43,2.33.33,1.88.37,1.93,1.07,2.38.86.55,1.64.78,2.05.61.25-.1.25-.2-.08-.82-.45-.82-.41-.96.29-1.13.68-.18,1.07.18.94.86-.14.64.16.86,1.45,1.07l.82.14v-.66c0-1.07.25-1.25.9-.64l.55.51-.43.82c-.53,1-.53,1.25-.04,1.99.21.31.39.74.39.92,0,.41,1.45,1.64,2.25,1.92.35.12.72.41.84.66.35.78,1.43,1.88,2.23,2.29l.76.39.98-.53c.53-.29,1.06-.64,1.17-.78.31-.37,1.15.06,1.13.59-.02.92-.7,2.07-1.7,2.95-.59.49-1.17.88-1.31.88-.41,0-.53.92-.2,1.45.55.82,1.95,1.19,2.19.59.06-.18-.02-.57-.21-.86-.18-.31-.31-.64-.31-.76,0-.37,3.34-3.73,3.71-3.73.18,0,.49.18.68.39s.59.39.88.39c.27,0,1.21.18,2.05.41,1.09.27,2.25.41,3.93.43,2.09.04,2.42,0,2.79-.33.21-.21.41-.61.41-.88,0-.96-.14-1-2.15-.7-1.02.16-2.05.29-2.29.29h-.45l.39-.98c.23-.61.37-1.35.33-1.9l-.04-.92,4.89-2.56c2.7-1.41,5.86-3.15,7.05-3.87,2.05-1.23,2.27-1.31,3.34-1.31,1.43,0,2.78-.39,4.94-1.41,3.22-1.54,3.81-1.68,5.53-1.47,1.13.16,1.7.14,2.17-.02.35-.14,1.45-.23,2.42-.23,1.8,0,1.82,0,2.01.53.45,1.15.78,3.2.96,5.9.1,1.54.23,2.85.27,2.91.06.04.51-.12,1-.35,1.19-.57,2.27-.43,3.97.51,1.19.66,1.35.7,2.58.63,1.72-.14,2.25-.47,5.53-3.44,2.62-2.38,3.79-3.36,4.06-3.36.08,0,.2.23.27.53.06.31,1.07,1.99,2.23,3.77,1.17,1.78,2.4,3.73,2.76,4.34l.66,1.09.82-.7c.45-.39,1.54-1.15,2.44-1.68s3.11-1.82,4.91-2.87c1.8-1.07,3.3-1.93,3.36-1.93.08,0,.12.49.12,1.07v1.07l1.9,1.88c2.35,2.33,4.46,3.99,6.92,5.43l1.88,1.11-.25,1.6c-.12.88-.2,1.64-.16,1.68.04.06,1.49.08,3.19.06l3.09-.04.12,1.9c.08,1.06.14,2.5.14,3.22v1.33h.76c.43,0,2.27.21,4.12.49,2.31.33,3.46.43,3.71.29s.41-.12.59.1.63.29,1.54.29h1.29l1.31-3.03,1.29-3.05-1.25-4.73c-1.92-7.13-2.27-8.72-2.15-9.42.12-.63.2-.66,2.62-1.47,3.17-1.07,5.51-2.03,8.93-3.73,3.48-1.7,4.53-1.99,5.84-1.56l.98.31,1.84,5.08c1.76,4.87,2.36,6.92,2.38,8.21.02,1.02.21,1.13,1.19.7.47-.23,1.17-.41,1.56-.41s1.21-.18,1.86-.41c.63-.21,2.7-.7,4.57-1.07s3.75-.86,4.16-1.07l.76-.39,1,.66c.57.37,1.23.78,1.47.9.25.14.8.55,1.21.94l.76.68.84-.57c.47-.31,1.17-.72,1.6-.9l.76-.35-.14.45c-.64,2.19-.9,3.54-.9,4.67,0,.72.08,1.37.18,1.43s2.58.25,5.53.43l5.35.31,2.99-.9c1.64-.49,3.07-.9,3.19-.9.1,0,1.07-.35,2.15-.78,1.9-.76,1.97-.78,2.35-.45.31.27.37.51.27,1.09-.08.51-.02.88.2,1.21.2.31.27.66.18,1.06-.12.53-.06.59.57.8.37.12.92.51,1.19.84.8,1,1.25,1.56,1.74,2.19.51.66.92,2.83.68,3.69-.1.37-.06.57.1.63.25.1,1.78-.72,2.93-1.56.33-.25,1.64-1,2.89-1.66l2.29-1.21.92,1.58c.64,1.15,1,1.54,1.23,1.49.88-.23,2.95-.57,3.05-.49.06.06.14.98.18,2.03l.08,1.93.7.35c.68.35.7.41.7,1.41s-.08,1.15-.88,2.15c-.49.61-1.07,1.19-1.27,1.29-.21.12-.61.64-.88,1.17-.43.84-.51,1.37-.7,4.67-.29,4.42-.21,4.83,1.21,6.39.53.59.96,1.15.96,1.25,0,.12.16.2.35.2.21,0,.53.18.72.39.43.47,1.21.51,1.82.08.37-.25.43-.47.43-1.6,0-1.21.06-1.41.78-2.44.43-.64.82-1.47.88-1.86.21-1.39.51-2.17.84-2.29.61-.21,1.8-1.84,1.8-2.44,0-.39.18-.68.57-.96.43-.31.59-.61.68-1.33.18-1.29.66-2.33,1.19-2.56.25-.12.49-.45.55-.8.08-.33.29-.66.47-.74.2-.06,1.04-.41,1.88-.78,1.66-.74,2.13-.72,3.2.14.35.27.78.39,1.41.39.86-.02.92-.06,1.29-.84.23-.45.92-1.72,1.54-2.83l1.15-2.01-.63-.64c-.49-.49-.61-.78-.61-1.45,0-.78-.02-.82-.61-.82-.72,0-1.33-.29-1.82-.92-.25-.33-.49-.45-.78-.37-.55.14-1.04-.55-.68-.98.12-.16.39-.27.61-.27.9,0,2.74-1.95,3.34-3.58.06-.18.27-.33.45-.33s.63-.27,1-.59c.35-.33.82-.59,1.02-.59s.41-.14.47-.29c.08-.16.47-.45.9-.66.41-.21.96-.68,1.21-1.02.9-1.27,2.99-1.66,4.01-.74.39.37.41.37,1.27-.21.49-.33,1.11-.59,1.47-.59.33,0,.72-.12.84-.27.25-.31.98-2.09,1.13-2.83.06-.25.37-.61.66-.78.96-.55.76-1.33-.8-3.05-.39-.45-.96-1.29-1.23-1.9-.51-1.06-.51-1.13-.23-2.05.16-.51.29-1.19.29-1.5,0-.35.25-.88.64-1.37.35-.45.88-1.17,1.17-1.62.33-.53.72-.88,1.07-.96,1.09-.27,1.37-.9.53-1.29-.41-.2-.47-.33-.43-1.09l.04-.88-1.56-.41c-.9-.25-2.03-.74-2.68-1.15-1.19-.78-1.84-1.45-.72-.78,1.5.92,2.31,1.21,3.91,1.41,2.4.27,2.44.25,2.6-1.37.12-1.07.23-1.45.57-1.74,2.15-1.82,2.6-2.07,3.4-1.92.27.06.35.25.35.84,0,.43-.08,1.02-.14,1.29-.29,1.04,1.07,1.72,1.95.98.59-.51.37-.96-.51-1.04l-.72-.06-.14-1.29c-.06-.72-.21-1.5-.35-1.74-.18-.33-.18-.57.02-1,.2-.53.18-.63-.21-1.06-.53-.57-3.38-1.58-4.16-1.5-.66.08-2.36-.29-3.07-.66-.27-.14-.9-.31-1.41-.37-.84-.12-1.04-.23-2.52-1.88-1.09-1.21-1.92-2.35-2.6-3.63-.92-1.74-1.06-1.9-1.88-2.21-1.02-.37-2.81-1.5-3.81-2.36-.53-.47-.74-.57-.96-.39s-.16.41.31,1.31c.37.74.55,1.41.55,2.03,0,.7.1,1.02.45,1.33.25.23.57.43.7.43.16,0,.21.12.14.29-.06.16-.16.72-.23,1.27l-.14.98h-2.42l-.12-1.33c-.08-.72-.14-1.6-.14-1.95,0-1.45-1.45-2.58-3.3-2.58-1.07,0-2.68-.88-3.3-1.84-.25-.35-1.43-1.35-2.62-2.17-1.8-1.25-2.27-1.49-2.76-1.41-1.02.14-2.09-.23-3.07-1.06-.51-.43-1.25-.88-1.66-.98-.41-.12-.98-.37-1.25-.59-.86-.61-1.92-.53-3.22.29-.64.39-1.64.88-2.23,1.09-.61.23-1.33.63-1.64.88-.35.31-.82.49-1.21.49-.63,0-.66.04-.78.9-.06.51-.12,1.15-.12,1.47,0,.7-.86,1.72-1.06,1.23-.06-.16-.12-.64-.12-1.06,0-.7-.02-.74-.8-.86-.51-.08-.9-.04-1.07.1-.21.18-.47.18-1.06,0-.43-.12-.78-.29-.78-.37,0-.06.41-.55.92-1.06.86-.88.9-.96.55-1.19-.31-.25-.35-.47-.23-1.95l.12-1.68,2.62-3.36c1.56-2.03,2.58-3.52,2.54-3.69-.06-.18-.39-.43-.76-.57s-.66-.35-.66-.49.23-.9.51-1.7.66-2.4.88-3.58c.29-1.56.66-2.74,1.37-4.3.88-1.93,1.15-2.35,2.58-3.79.88-.9,2.17-2.03,2.87-2.54.7-.49,1.92-1.39,2.72-1.97l1.43-1.07-.12-1c-.06-.53-.12-1.13-.12-1.33,0-.29-.23-.33-2.29-.33-1.37,0-2.68-.12-3.19-.27-.63-.18-1.64-.23-3.52-.16l-2.66.08-.25-1.02c-.21-.82-.21-1.06-.02-1.17.18-.12.21-.43.12-1.11l-.12-.96,1.35-.23c.76-.12,1.5-.18,1.66-.12.39.16,1.49-1.37,1.35-1.88-.06-.21-.45-.64-.84-.94-.66-.49-1.09-.59-3.46-.9-1.76-.21-4.75-.86-8.56-1.82-3.22-.82-5.9-1.5-5.94-1.54s.06-.61.25-1.27c.39-1.43.27-2.23-.49-3.62-.43-.76-.57-1.25-.57-2.09,0-.61-.14-1.52-.31-2.01-.18-.55-.27-1.23-.21-1.62.08-.43-.02-1.09-.23-1.68-.31-.92-.37-.98-.96-.92-.57.06-.66,0-.84-.53-.29-.86-.76-1.06-2.21-.9l-1.21.14-.59-1.45c-.47-1.15-.9-1.8-2.38-3.42-2.91-3.19-5.96-4.87-11.59-6.41l-2.46-.68-2.42.2c-1.33.1-2.56.2-2.74.2-.21,0-.7-1-1.64-3.36-.92-2.31-1.54-3.58-1.99-4.08-.98-1.07-.92-2.15.33-5.2,1.09-2.72,1.66-3.89,1.95-4.06.14-.08.2-.78.18-1.82-.04-1.95-.14-1.84,2.72-3.26.98-.49,1.82-.96,1.88-1.04.04-.08.47-1.68.96-3.56.72-2.83.84-3.63.76-4.65-.08-1.09-.12-1.21-.53-1.21-.31,0-.49-.16-.57-.49-.16-.61-.37-.61-1.66-.06l-1.02.41-1.04-1.02c-.55-.55-1.66-1.39-2.46-1.86-3.63-2.11-3.87-2.29-5.24-4.03l-1.35-1.72.27-1.52c.47-2.78.76-4.96.66-4.96-.31.02-3.54,1.33-3.81,1.54-.27.23-.37.21-.61-.1-.41-.55-.35-.88.31-2.15.66-1.23,1.02-2.23.8-2.23-.08,0-.29.14-.51.29l.05-.05h0Z"/>
  </g>
</svg>