<?xml version="1.0" encoding="UTF-8"?>
<svg id="Calque_2" data-name="Calque 2" xmlns="http://www.w3.org/2000/svg" viewBox="0 0 251.95 354.66">
  <defs>
    <style>
      .cls-1 {
        fill: none;
        stroke: #000;
        stroke-miterlimit: 10;
      }
    </style>
  </defs>
  <g id="Calque_1-2" data-name="Calque 1">
    <path class="cls-1" d="M248.65,263.1v-10.45c0-.98,2.12-3.35,1.82-4.77-1.91,2.05-4,2.84-5.64-.04-2.14-3.73,4.41-8.29,5.19-11.99-.09-.47-4.45-1.44-5.45-1.84-1.27-.49-5.11-2.63-5.89-2.75-.64-.09-.98.81-1.95.64-.17-.04-2.95-1.4-3.09-1.52-1.5-1.34.95-2.22,1.27-3.3s.19-2.59.57-3.98c1.02-3.64,4.11-5.81,6.33-8.67,1.17-1.52,4.41-5.34,5.04-6.76.38-.83.62-1.23.34-2.22-.17-.61-3.47-4.41-4.03-4.66-.72-.32-1.76.23-3.26-.34-1.33-.49-6.78-5.32-7.56-6.53-.97-1.53-1-3.31-2.12-4.7-.89.81-1.52,2.06-2.95,1.8l1.34-2.95c0-.53-3.96-1.95-4.11-3.66l1.87-4.28h2.48c.44-1.44.38-3.07,1.02-4.43s2.65-2.35,3.09-3.73c.36-1.14.04-2.27.28-3.35.21-.85,1.08-1.46,1.17-1.99.28-1.5-2.37-2.42-3.11-3.54-.51-.78-.47-1.78-1.04-2.59-1.42-2.05-3.22-3.86-4.39-6.08-2.03-.93-4.98,1.67-6.12,1.67-1.65,0-4.43-2.46-3.83-4.3l1.76-1.44c-2.41-1.76-4.11-2.52-2.46-5.7-2.86-1.21-1.38-4.39-4.36-5.66,2.86-.97.59-2.99-1.25-3.35-.93-.17-1.74.51-2.39.17-.76-.4,1.16-2.82.89-3.71.53-3.3-3.83-1.87-5.44-2.65-1.14-.55-1.33-4.3-3.16-5.02l3.67-2.25.42-3.2c-2.95-.64-.42,2.33-2.95,2.95l.68-2.73-1.16.42-.83-.89c-1.95,1.29-2.48.19-3.69.04-.8-.09-3.11.13-3.35-.08-.09-.08-.25-1.53-.74-2.22-1.1-1.55-4.15-1.89-4.37-4.49l-9.94-.3c-1.74-2.92-5.04-4.09-6.29-7.35,1.76-2.92,4.19-5.11,4.92-8.6l4.73.3,1-1.84,1.53.44c-1.33-3.45,1-2.84,2.27-5.23l-2.27-2.27c2.01-2.01,5.64-2.25,6.36-5.45l-6.36-2.54c1.59-4.66-2.48-1.65-4.09-2.46-.28-.15-3.47-3.88-3.71-4.49-.64-1.53-.66-3.26-1.38-4.75-1.69-.25-2.65-1.53-3.98-2.16-2.37-1.1-6-1.25-7.25-4.01.09-.55,5.91-5.78,6.82-6.4,1.5-1.02,6.89-3.07,7.27-3.64.7-1,.17-2.16.64-2.99.32-.55,1.8-.78,1.95-1.65.13-.74-.59-2.61.09-3.81,1.36-.27.89,1.33,2.23,1.63,2.14.47,5.98-7.39,7.33-9.11,2.25-2.9,8.45-7.06,8.65-10.47.13-2.22-1.38-10.45-2.75-12.14-.57-.72-1.48-.91-2.22-2.01-.89-1.34-1.87-5.68-3.54-5.98-1.12-.21-1.82,1.78-3.33,1.08-2.78-1.27-1.33-4.47-4.09-5.04-.51-.09-.97-.4-1.52-.17l-11.32,24.83c-1.63,1.19-4.15.06-5.8.81-.4.19-4,3.48-4.2,3.98-.76,1.8.17,4.55-1.27,6-1.59,1.63-8.69,2.73-10.32,4.45-1.06,1.12-1.34,5-.68,6.5l-.32.45c-1.53.47-3.12.04-4.7.32s-7.18,3.11-8.69,4.05c-1.04.64-2.2,2.82-3.9,2.22l.45,1.36-1.36-.23c-.11-.64,1.21-2.8-.17-2.46-1.25.3-3.35.74-4.37,1.08-1.53.53-3.05,2.44-4.87,2.86-2.44.57-5.59.93-8.05,1.5-1.36.32-2.42,1.19-3.98,1.08-1.93-.15-1.55-1.86-2.41-3.39-1.29-2.33-2.37-4.53-5.25-5.25s-1.78,2.41-4.75,2.48c-3.14.09-9.56-3.09-13.22-3.05l-.57.95,1.72,3.98c-7.58-.97-14.98.95-22.5,1.82-1.52.17-3.88-.44-5.04.42-.53.4-.62,1.52-1.4,1.78-1.1.38-2.63-.28-3.81.76-.93.81,1.23,2.94.91,4.03-.34,1.25-2.5.19-3.73.36-.85.11-3.16,1.12-3.75,1.76-.3.32-2.01,2.35-2.27,2.71-1.72,2.33.59,4.66.21,5l-8.64.91.91,3.64c-6.42-1.42-1.46,7.94-2.48,9.56-.91,1.42-2.99-1.57-4.17-1.7-2.29-.27-4.83,1.8-5.09,4.13l2.14,2.71c-1.08,1.87-2.41,2.92-2.42,5.32l-.85.4-1.89-1.25c-1.44,0-2.06,5.11-2.59,5.74-.74.87-3.03.13-3.77,1l-1.59,4.26,1.17,1.16c-.02,3.22-3.96,1.59-4.92,3.81.7,3.2.36,6.63,1.36,9.79.62,2.01,3.47,5.36,3.33,6.67-.15,1.48-3.48,2.33-4.01,4.66-.74,3.22,1.55,5.38,1.31,8.09-.13,1.46-1.08,1.59-1.31,2.35-.44,1.46.32,3.54-.59,5.09-2.03.32-3.67-1.69-5.61-.38-2.31,1.59,1.89,3.86,2.29,5.85.27,1.38-.51,3.01-.25,4.75.11.76.7,1.38.78,1.95.25,1.63-.3,3.84.8,5.11,1.67,1.93,3.81.87,5.44.91s3.28.66,5.25.21c2.01,3.05-4.75,4.32.44,6.4,2.31.93,4.47,1.69,6.69,2.86,1.84.97,3.28,2.59,5.55,2.86.55,4.26-5.49,4.58-4.94,8.79.13,1.02.95,1.87,1.23,2.9,1.25,4.55,3.11,8.56,5.57,12.61.44.72,1.57,1.21,2.03,2.06.4.72.3,1.7.76,2.42,1.48,2.35,6.72.32,9.18,1.72.93.53,2.56,3.16,3.94,3.83.06.3-2.35,3.31-2.61,4.6s.09,2.71-.13,3.96c-.4,2.06-1.63,3.66-1.31,5.91.3,2.05,4.56,5.15,5.59,8.52,1.38,4.56,2.31,9.47,3.71,14.01.34,1.08,1.38,1.93,1.57,2.97.53,2.9-.55,6.76.27,9.73,3.83,3.26,7.61,6.7,11.59,9.77,3.01,2.31,2.14,1.65,4.55,4.55,1.78,2.14,3.73,3.16,6.59,2.99,3.26-.17,6.23-4.28,7.84,1.19.47,1.59.74,3.86,1.1,5.32.15.61,1.16.55,1.29,1.02.64,2.25-2.14,1.27-1.84,2.65.09.4,3.79,4.64,5,3.43l-1.29,2.05c1.14,1.44,2.78,1.14,1.74,3.37l5.44,2.97-1.82,2.27,1.82,2.05c-2.44-.3-7.39,2.71-6.44,5.38l-.83.32v.68l1.84.72c.25,1.48-2.35,2.73-1.8,4.45.4,1.21,4.79,1.87,4.49,3.22-.23,1.04-5.25,4.2-6.33,5.04,1,1.42,6.4,2.59,6.76,3.71.81,2.54-2.37,3.9-3.83,5.59-.59.66-.64,1.48-1.1,2.1-.53.72-2.71.68-.62,2.41s5.26,2.41,6.8,5.49c.93.19,5.49-5.89,7.67-5.93,2.95-.04,4.34,4.66,5.53,5.02.8.23,1.84-1.19,3.56-.89.19.04,3.16,1.84,3.3,1.95.44.38.81,2.01,1.5,2.82.51.59,3.56,3.73,3.92,3.79l11.04-5.66c2.1.7,3.56-1.1,4.77-1.12,2.56,0,5.89,1.86,7.71,1.8s5.15-1.46,5.97-3.14c2.37.66,1.82,3.62,2.27,5.45,1.4-1.29,3.83-3.98,3.64-5.97-.08-.91-1.72-2.67-.45-3.12,1.74-.61.64,2.03,3.28,1,3.98-1.55,3.5-8.01,8.29-9.43,1.7-.51,5.34-.17,6.17-2.03.74-1.65-1.38-2.14-1.86-3.6-.57-1.74-.34-4.43-1.06-6.31,2.99-2.25,3.98.97,5.38,2.82,1.27,1.69,4.37-3.98,4.13-5.17,4.3,1.93,3.94-3.37,4.17-6.29,1.16-1.19,4.62-1.16,5.28-1.53.44-.25,1.93-3.54,1.46-4-2.31.91-2.71-1.74-3.88-1.86-1.63-.17-4.05,3.96-6.29,3.64-.8-.23-2.01-3.77-3.22-4.55-1.06-.68-2.75-.15-3.26-.85l2.1-9.24-3.66-3.5c3.01-.23,6.17,1.95,8.94,2.25,1.4.15.89-.55,1.4-.91,1.12-.78,1.86.59,3.07.47,1.08-.09,1.65-1.48,2.5-1.99,1.29-.78,3.58-1.59,5.04-2.76.91-.76,1.61-1.78,1.82-2.95.74-.55,2.95,1.84,5.23.45.76-.45,3.54-4.81,3.41-5.66l-4.05-1.23c.74-3.03-1.67-3.09-1.4-5.38,1.38.13,2.99-.38,1.99-1.87l-2.01-.66c.51-1.97,2.67-2.94,2.29-5.21l5.87-.04c0-1.04-.06-2.39,1.38-2.25l3.2,4.77c0,1.93-5.91,2.88-3.69,5.95,1.93,2.65,5.87-.34,7.9.27,1.38.42,2.5,4.92,6,4.94,6,.06,5.51-7.86,10.55-4.62l.62-.15c.8-.87.8-3.2,1.57-3.9.83-.76,5.72-.62,2.56-2.29l-.04-.66c1.63-.44.7-1.97.93-3.39,2.65-.83,4.3.78,6.55,1.8l2.75-4.55,1.82,1.8,1.14-.68-.08.08h0Z"/>
  </g>
</svg>