<?xml version="1.0" encoding="UTF-8"?>
<svg id="Calque_2" data-name="Calque 2" xmlns="http://www.w3.org/2000/svg" viewBox="0 0 251 275.88">
  <defs>
    <style>
      .cls-1 {
        fill: none;
        stroke: #1d1d1b;
        stroke-linejoin: bevel;
        stroke-width: 1px;
      }
    </style>
  </defs>
  <g id="Calque_1-2" data-name="Calque 1">
    <path class="cls-1" d="M191.8,31.33c2.6.25,1.55-4.57.64-5.34-.76-.65-4.86-1.7-6.24-2.34-2.72-1.25-8.94-4.62-10.36-7.13s-.05-2.37.78-3.62c.3-.45,1.37-2.58,1.34-2.99-.05-.59-1.98-3.47-2.49-4.01-2.76-2.91-5.17-2.02-8.17-3.15-1.13-.43-2.64-2.15-3.55-2.25-.57-.06-3.68,1-4.26,1.44-.26.2-4.41,4.39-4.61,4.65-.49.66-.66,2.25-1.2,2.57-.97.59-6.42-.08-8.09.15-3.65.49-1.45,6.88-2.39,8.93-.21.45-1.1.97-1.48,1.61-.48.79-1.76,3.77-2.21,4.14-.66.55-2.6.6-3.68,1.63-2.1,2-.51,5.47-3,5.95-.97.19-1.54-1.09-2.37-1.61-.92-.57-2.9-1.6-3.9-1.94s-3-.45-3.42-.69c-.46-.27-1.03-1.77-1.47-2.12-1.68-1.34-11.45.38-14.46-.12-1.73-.29-2.59-2.17-4.47-2.39-2.47-.29-10.15-.74-12.04.33-.7.4-1.64,2.12-2.45,2.35-1.4.41-4.44.18-6.07.45-1.5.25-3.04.83-4.45,1.38l-9.46,11.46c-5.49,3.9-9.28,6.43-16.06,7.61-1.53.27-7.31.08-7.9,2.05-.24.8-.16,4.06.12,4.89.62,1.81,4.24,4.29,4.55,5.75.4,1.85-.86,6.55-1.99,8.16-.6.85-1.78,1.41-2.28,2.01-1.76,2.08-3.35,4.59-5.25,6.59-1.68,1.76-4.6,3.61-6,5.67-1.02,1.5-1.4,3.77-2.3,5.25-.59.97-2.23,1.84-2.46,2.36-1.16,2.64-.66,5.98.14,8.64,1.16,3.88,1.04,2.3,3.57,4.32,1.43,1.13,4.4,3.32,5.5,4.45,1.69,1.75-.53,1.09-1.57,1.87-.74.54-2.48,2.98-2.64,3.88-.58,3.25,1.61,2.86,2.68,4.45.2.3,1.05,2.67,1.02,3-.14,1.56-2.24,1.1-3,1.66-.29.21-1.98,3.45-2.08,3.92-.58,2.82.84,9.9-.25,11.76-.07.12-1.73,1.32-1.99,1.44-4.16,1.97-5.12-2.02-9.29-1.05-.78.27-.92,2.56-1.59,3.21-1.26,1.22-3.92.5-4.8,1.03-.52.32-1.5,2.44-2.15,2.69-1.42.55-1.92-1.61-2.66-2-.6-.32-2.85-.61-3.57-.51-1.24.18-4.48,2.46-4.91,3.69-2.46,7.01,2.89,10.04,7.69,13.74l52.2,25.51,2.79,27.92c.62,1.08.87,2.87,1.72,3.77.76.8,1.86.81,2.74,1.38,3.29,2.14,1.76,6.4,2.16,9.85s1.66,4.98,2.82,7.81c.47,1.15.44,2.65,1.06,3.74,1.19,2.07,5.74,5.37,7.53,7.57,1.62,2,4.05,7.13,6.59,7.82.98.27,2.19.03,3.26.51.89.4,1.37,1.51,1.98,1.79,3.75,1.69,5.41-3.17,7.96-2.85,2.97.36,3.6,2.94,5.4,3.56,2.55.88,6-.03,8.01.57,1.37.41,2.94,3.95,5.71,4.59,2.58.6,2.06-1.07,3.32-1.88,2.25-1.43,3.33,1.21,5.19,1.6,1.68.36,6.54.21,7.47,2.13.43.89.02,2.23.2,3.23.46,2.64,1.77,5.24,3.3,7.41,4.68,1.28,13.23-5.89,17.53-8.14,4.89-2.56,11.16-5.21,16.31-7.36s11.57-3.78,16.14-6.16c1.43-.74,2.27-2.27,3.45-2.73,2.44-.97,5.2-.32,7.55-.68,5.65-.87,13.43-8.45,18.27-11.92,4.08-2.93,14.06-10.47,18.22-11.97,2.45-.88,6.51-.7,8.9-1.74.29-.13,3.32-2.43,3.52-2.66.53-.64.47-1.12.17-1.87-1.41-3.44-8.73-6.81-11.93-9-5.4-3.68-13.62-9.06-18.39-13.18-.66-.57-1.96-1.65-1.7-2.64.05-.17,1.96-2.75,2.12-2.88,2.03-1.71,6.03-.58,4.63-5.36-.22-.75-3.02-2.98-3.82-2.91s-6.05,2.7-6.07,4.04c-.53.36-1.23-.81-1.32-1.29-.7-3.69,8.62-4.01,9.21-7.13.23-1.24-.38-4.29,1.03-5.14.18-.11,3.65-.49,4.28-.52,2.65-.15,5.75.38,8.2.24.61-.03,5.64-1.4,6.15-1.67.92-.48,2.09-4.52,1.96-5.55-.17-1.32-3.92-5.06-4.86-6.83-1.5-2.82-2.19-6.5-3.65-9.39-1.86-3.67-6.96-6.8-.94-9.39,1.52-3.07.17-5.11-.4-8.14-.27-1.45.05-3.48-.63-4.86-.84-1.72-3.86-3.46-4.85-6.47-.86-2.58,0-6.65-1.67-8.97-.4-.55-4.3-2.85-5.1-3.13-2.32-.82-8.72-1.01-10.13-2.22-.57-.49-1.82-5.3-2.94-6.67-.73-.88-2.15-1.28-3.07-2.07-1.4-1.21-1.4-2.74-4.3-2.26-2.34.39-4.05,3.3-6.29,1.53-1.1-.87-1.03-2.5-1.74-3.07-.8-.65-3.61-.86-4.75-1.42-2.39-1.19-2.73-3.58-3.61-5.66-.45-1.06-1.43-.8-.84-2.4.74-2.05,2.3-2.54,3.13-3.74s1.26-3.8,2.03-5.17c.54-.97,1.54-1.86,2.19-2.96.5-.84.91-2.74,1.4-3.23.21-.21,3.54-1.77,3.88-1.81,1.29-.12,3.15.87,4.6.17.78-.39,1.65-4.08,1.2-4.98-.17-.34-3.53-2.98-4.28-3.95-2.1-2.69-3.89-6.79-6.04-9.75-.84-1.16-2.34-1.62-2.15-3.19.38-3.13,3.65-3.22,5.23-5.09,2.25-2.66.65-5.63-.2-8.5l-3.68-.1-.36-1.97h0Z"/>
  </g>
</svg>