<?xml version="1.0" encoding="UTF-8"?>
<svg id="Calque_2" data-name="Calque 2" xmlns="http://www.w3.org/2000/svg" viewBox="0 0 251.47 240.77">
  <defs>
    <style>
      .cls-1 {
        fill: none;
        stroke: #000;
        stroke-miterlimit: 10;
      }
    </style>
  </defs>
  <g id="Calque_1-2" data-name="Calque 1">
    <path class="cls-1" d="M90.19,8c.23,2.3.21,17.36.93,18.02s1.65-1.55,1.92-2c4.43-7.6,8.47-15.57,12.41-23.41,4.44,1.49,5.37,4.4,6.06,8.72,1.54.33,3.57-.36,5.01.3,1.53.7,4.83,5.68,6.34,6.14,2.27.67,5.16-.58,7.77,1.01,3.34,2.02,7.2,8.91,10.84,11.33-3.01,3.17-6.46,4.82-4.87,9.96.55.79,5.6.3,7.22.64,3.67.76,8.01,4.65,11.99,5.35.26,1.06-.2.75-.58,1.05-2.62,2.04-6.42,3.59-9.13,5.65-.01,1.51,7.85,5.98,8.54,7.63.78,1.85-.49,3.83.9,5.57.43.55,5.94,4.34,6.6,4.49,3.41.76,9.64-.15,12.73.67,1.87.5,8.5,6.18,9.81,6.2l12.49-6.71,13.69,27.59,13.45.44,13.51-5.27c.43,0,5.38,2.89,5.77,3.31.63.7.34.52-.08,1.27-.73,1.31-5.91,7.3-5.86,7.87l13.33,19.02v19.17h-16.86l-12.93,12.94-.7,8.77-9.4-4.12c-2.06,2.19-2.21,5.58-4,8.04-2.67,3.67-7.68,6.62-10.62,10.19-1.06.48-6.32-4.79-7.99-4.34-2.08.55-7.85,7.38-10.28,8.7l.07.97,8.02,5.74-3.49,6.24-4.21-2.25-.83.4-23.43,38.96c-.4.61-.9,1.37-1.63,1.6-3.37,1.05-8.92.6-12.26,1.6-1.68.51-6.87,5.43-8.19,4.76l-24.75-23.84c-.79-1.76,3.34-6.76,2.36-8.3-.4-.62-3.39-1.58-4.44-2.52-2.41-2.15-7.81-11.9-10.11-12.55-1.23-.34-6.8-.4-8.09-.16-.49.09-4.54,2.62-4.87,2.99-1.21,1.35,1.7,4.31,2.31,5.76-1.53.2-3.68-.39-5.07.24-1.48.67-5.41,6.05-6.49,7.61l-3.45-2.66-4.56,2.6-3.77-3.63-22.07-.37-17.16,13.3-9.04-15.7,6.46-.24,3.98-5.76c-1.58-6.36-6.35-11.55-3.85-18.6l12.26-13.62-.38-11.91-3.25-4.6,2.34-1.52.43-16.05-9.42-11.84-8.11-1.13-7.32-8.3,4.54-6.46-5.78-9.43,2.51-6.7-5.96-3.52,3.4-.52.69-.69.1-15.2-4.65-3.68c0-.42,5.15-3.28,5.94-4.68.43-.76,2.32-8.01,2.25-8.66-.18-1.64-8.74-12.5-8.19-13.22,2.14-.31,4.64-2.95,6.45-3.49,1.81-.54,10.46-.42,12.68-.16,3.95.46,8.34,2.91,12.46,3.22l2.98-5.89-2.68-4.08,3.47-1.95c3.25,4.51,9.01,2.07,13.84,2.63l6.23-4.43,1.12-.17c.42.02.81.45.97.45h9.93c.35-1.97-2.77-6.27-2.77-7.62V3.15c0-.16-1.57-1.9.21-.67l3.03,5.52h21.28,0Z"/>
  </g>
</svg>