<?xml version="1.0" encoding="UTF-8"?>
<svg id="Calque_2" data-name="Calque 2" xmlns="http://www.w3.org/2000/svg" viewBox="0 0 250.97 304.24">
  <defs>
    <style>
      .cls-1 {
        fill: none;
        stroke: #000;
        stroke-linejoin: bevel;
      }
    </style>
  </defs>
  <g id="Calque_1-2" data-name="Calque 1">
    <path class="cls-1" d="M168.81,8.49c.2.2,1.12-.26,1.75,0,.5.21.76,1.1,1.17,1.17,3.44.61,8.24-.61,11.67,0,.34.06,1.67,1.98,3.5,1.17l2.92,4.08-3.5,3.5c-.34,2.08.49,5.22,0,7-.39,1.38-4.92,3.05-3.5,6.42,4.18,1.8,6.13-3.1,7.59-3.5,4.03-1.11,4.74.79,7,2.33.28.19.92-.18,1.17,0,2.81,2.04,5.35,5.91,8.17,8.17,3.17.26,5.59,0,8.17-1.17,1.52,1.96,4.1,1.83,5.84,2.33,1.58.46,7.03,8.04,9.34,9.34.55.3,1.53-.22,1.75,0,.13.13.18,2.51,1.17,3.5-1.97.27-4.62-.4-6.42,0-.47.11-.79,1.59-2.33,1.17-.47-.13-.72-1.06-1.17-1.17-1.63-.36-4.03.25-5.84,0l-2.92,4.08,1.17,4.08c-3.16-.51-5.5.58-8.17,1.17.64,1.88-1.09,2.46-1.17,2.92-.99,5.6,1.03,11.64,6.42,13.42l7.59,2.33,1.17,8.17c4.29-.3,3.01,5.99,8.17,4.67.88,2.19-1.04,3.54-1.17,4.08-.76,3.24,1.62,6.66,4.08,8.75,3.96.6,7.32-1.25,10.5-3.5l6.42,6.42-1.17,4.67,2.33,6.42c-1.93-.61-2.17.85-2.92,1.17s-3.49-.32-4.08,1.75c-1.04,3.61.07,3.56-2.92,5.25-1.52.86-2.89,4.11-2.92,5.84-2.68.36-10.82-1.19-11.67,1.75-.64,2.21,1.49,3.21,1.17,5.25h2.33c1.32,1.32-5.73,6.73-4.67,9.34h-2.92c-.55.16-2.79,3.61-2.92,4.08-.27.97.23,2.44,0,3.5-.11.46-1.1.74-1.17,1.17-.18,1.2-.27,4.87,0,5.84.33,1.19,4.7,3.03,1.17,5.84l1.17,5.84-2.92,1.75c-1.24-2.07-5.86-1.44-6.42.58s.58,6.06,0,8.17c-.46,1.67-5.04,2.59-3.5,8.17.28,1,3.56,2.29,2.33,5.25l-7,1.17-4.67,13.42c-2.56,1.6-2.19,5.65-5.84,5.25,2.3-5.11,2.57-11.92-4.67-10.5l2.33-1.17c-.62-6.01.85-13.46,0-19.26-.06-.43-1.06-.7-1.17-1.17-.7-3.01,1.75-4.98,1.17-7-.06-.2-2.72-2.86-2.92-2.92-2.8-.77-4.77,1.46-5.84,1.17-.47-.13-.72-1.06-1.17-1.17-1.48-.33-3.62.22-5.25,0l-1.17,9.34h-3.5c.19,2.35-.79,4.99,1.17,6.42-4.07,2.17-2.6,7.83-7,7.59,1.16,3.78-4.29,6.91-3.5,9.92l1.17,1.75c-1.88-.64-2.46,1.09-2.92,1.17-1.75.3-4.33-.42-5.84,0-1.12.3-4.77,5.67-7.59,4.67-.46,1.61-.74,3.72-1.17,5.25-.19.67-4.47,5.16-4.67,5.84-1.05,3.66-2.43,5.25-3.5,8.17s-1.55,8.09-1.17,11.67c.05.43,1.13.75,1.17,1.17.54,6.4-.39,13.36,0,19.84l-5.84,4.67v9.92c-3.26-2.05-6-2.79-9.92-2.33-1.26.79-3.77,4.42-4.67,4.67-.99.27-2.53-.28-3.5,0-.61.18-1,1.8-2.92,1.17v5.84c-1.91-1.26-4.13-1.55-6.42-1.17-1.86.32-5.12.46-8.17,0-.5-.07-2.93-2.18-5.25-1.17v2.33c-4.33-.76-11.99,1.04-15.76,0-.98-.27-1.75-3.22-4.67-2.33-.48.14-.72,1.06-1.17,1.17-1.05.25-2.53-.27-3.5,0-.79.22-3.38,3.76-4.67,4.67-.25.18-.86-.19-1.17,0-1.83,1.16-1.98,2.64-1.75,4.67-2.61-.72-7.12-7.71-8.75-8.17-1.51-.42-4.08.28-5.84,0-2.28-1.4-7.28-6.56-9.34-7-1.39-.3-7.95-.3-9.34,0-.42.09-2.78,2-3.5,2.33-.58.27-1.56-.22-2.33,0-1.42.41-3.03,4.92-6.42,3.5-.91-2.04,1.11-3.71,1.17-4.08,1.26-8.74-.93-20.1,0-29.18l-1.17-2.92c-1.88.64-2.46-1.09-2.92-1.17-1.33-.23-3.17.04-4.67,0-.99-.02-4.06.54-2.92-1.75,1.05-2.1,3.37-1.61,3.5-1.75.2-.22-.26-1.12,0-1.75.33-.78,1.87-1.44,1.17-3.5l8.17-4.08c-.64-1.88,1.09-2.46,1.17-2.92.44-2.52-.54-14.05,0-14.59,3.78-.46,8.67.63,12.25,0,.46-.08,1.04-1.81,2.92-1.17l1.17-2.92c-.99-16.3,1.34-34.08,0-50.18-.04-.42-1.12-.74-1.17-1.17-.47-4.29.33-7.92,1.17-11.67l-1.17-3.5-8.17-7c0-.39,1.04-.69,1.17-1.17.98-3.65.67-5.02,0-8.75,3.08.46,3.64-2.36,4.67-4.08.44-.75,2.25-3.13,2.33-3.5.63-2.92.26-6.54-2.33-8.17,2.39-1.14.46-8.04,1.17-8.75h2.33l1.17-2.92-1.17-4.08c.93-.14,2.19.25,2.92,0,.58-.2,3.08-2.24,3.5-2.33,2.31-.5,5.73.43,8.17,0,.46-.08,1.04-1.81,2.92-1.17-.64-1.88,1.09-2.46,1.17-2.92.43-2.43.48-15.26,0-17.51-.07-.3-1.81-2.84-2.33-3.5v-1.17c3.4-3.01,1.72-7.01,2.33-10.5.54-3.03,4.48-7.42,5.84-11.67.76-2.37,3.17-7.48,3.5-9.34.4-2.24-.28-5.21,0-7.59,3.16.51,5.5-.58,8.17-1.17-.64-1.88,1.09-2.46,1.17-2.92.28-1.62.28-6.55,0-8.17-.08-.46-1.81-1.04-1.17-2.92-1.89.64-2.4-1.05-2.92-1.17-1.47-.32-4.32,1.07-4.08-1.17,2.66-.37,6.31.53,8.75,0,1.09-.23,3.47-3,5.25-2.33-.67-1.79,2.1-4.17,2.33-5.25.63-2.91-.48-6.41,2.92-8.75,2.15.98,5.29.92,6.42,2.92.32.55-.22,1.53,0,1.75.2.2,1.12-.26,1.75,0,.5.21.76,1.1,1.17,1.17,2.92.51,6.84-.36,9.92,0,.72.72-.69,17.23,0,20.42.29,1.34,3.06,3.33,2.33,5.84-.97,3.36.78,2.92,1.17,4.67,1.1,5.1-1.05,5.5,4.08,8.75,2.54,1.61,1.53,5.93,7,4.67.42-.09.67-.93,1.17-1.17.36-.16.91.15,1.17,0,3.7-2.21,6.49-8.81,11.67-9.34,2.53-3.07,7.62-5.54,6.42-9.92-.18-.64-2.16-1.69-2.33-2.33-1.54-5.58,3.05-6.5,3.5-8.17.68-2.47-1.33-5.84,1.75-7.59.55-.32,1.53.22,1.75,0s-.3-1.2,0-1.75c.97-1.74,4.03-3.76,3.5-6.42,3.96.95,11.59-7.67,13.42-8.17,2.17-.6,5.49,1.12,7-1.17,1.18,1.4,2.99,1.18,4.08,2.92.69,1.1,1.82,2.57,2.33,3.5.3.55-.22,1.53,0,1.75Z"/>
  </g>
</svg>