<?xml version="1.0" encoding="UTF-8"?>
<svg id="Calque_2" data-name="Calque 2" xmlns="http://www.w3.org/2000/svg" viewBox="0 0 250.69 192.68">
  <defs>
    <style>
      .cls-1 {
        fill: none;
        stroke: #000;
        stroke-linejoin: bevel;
      }
    </style>
  </defs>
  <g id="Calque_1-2" data-name="Calque 1">
    <path class="cls-1" d="M148.27,5.88c-3.4-.23-6.79-1.11-10.19-1.36-1.77-.13-3.57.45-4.87.34-2.17-.19-4.11-2.66-6.3-3.21-.92-.25-6.19-1.15-6.94-1.15-1.57,0-3.42,1.62-5.02,1.74-1.04.06-1.85-.43-2.98-.36-3.06.23-5.04,3.23-8.74.38-1.09.85-.49,2.3-.87,3.62-.83,2.83-4.28,4.85-6.57,6.13-.53.3-.43,1.68-2.28,1.08l.45-1.36-2.49-.92c-.47,1.19-1.23,1.34-2.51,1.38l.43,2.02-.43.47c-1.74-.21-3.34,1.11-4.77,2.04-.28.08-.17-.7-.32-.79-1.26-.77-5.4,2.32-7.15,1.7.87,1.55.38,3.74-.53,5.13-1.36,2.15-1.49.6-2.92.3-1.59-.34-1.28.43-1.75.72-1.64,1.02-1.13,1.45-1.59,1.79-.28.21-6,1.59-6.6,1.57-2.15-.02-3.83-1.72-5.81-2.19-.94,1.15-2.4,1.26-3.45,1.98-3.91,2.7-7.83,5.19-11.93,7.55-2.26,1.3-9.85,3.7-12.23,2.98-.57-.17-1.02-.94-1.91-1.26-.7-.25-6.66-1.66-7.17-1.66-2.25,0-1.62,1.72-3.02,2.77-2.79,2.09-5.11-1.81-6.76-3.17-1.08-.91-2.32-1.53-3.45-2.45-.7-.58-3.04-4.32-4.08-1.83-.08.17-.19,3.57-.13,3.76.15.64,1.25.96,1.28,1.87,0,.75-.74,1.83-.85,2.77-.25,1.92.43,3.08.45,4.53,0,.81-.85.57-.94.96-.28,1.15.87,6.43,1.45,7.53.98,1.87.85.77,1.79,3.66.21.62,1.17.58,1.3,1.06.47,1.85-.53,3.94.94,6.21.53.79,1.45.32,1.34,1.83-.13,1.7-2.66,3.25-3.68,4.98-.26.43-1.77,3.87-1.77,4.09-.04,1.04,1.7,2.49,1.75,4.11s-.96,4.66-.77,6.21c.25,1.94,2.6,3.59,2.34,5.23-.21,1.28-.94,1.83-1.3,2.79-.32.83-.21,2.28-.64,2.91-.26.38-.96.13-1.42.57-1.75,1.7-2.26,6.91-3,9.13-.4,1.23-1.43,1.6-1.51,2.79,3.28-1.06,3.96,1.59,5.6,2.32,1.43.62,2.92.11,4.06.47.6.19.62,1.15,1.28,1.43,1.64.72,5.15-.25,4.42,2.26-.09.3-1.38.23-.91,1.81.13.43,1.04.38,1.3,1.04.3.81.36,4.42.55,4.68l2.72-.91-.45,2.26h2.25c.11,5.36,4.87,1.04,6.49,1.43s2.51,3.74,3.49,4.26c1.19.62,5.89-1.87,5.93,2.72,0,1.26-1.66,1.42-.92,3.34,1.47-.13,2.34,1.02,3.79.98,2.09-.06,3.34-2.38,5.36-1.77.36.11,5.26,4.17,5.76,4.68.89.94,2.55,4.23,3.17,4.53,1.42.7,3.19-.83,3.87.21l-.25,1.81,1.28.06c-.08,1.38,1.49,4.42.79,5.4-.36.51-1.87.45-2.3,1.32-.96,1.94-.09,6.04-1.83,8.61-.43.64-1.17.72-1.42,1.06-1.19,1.62-.04,3.83-.09,5.53-.04,1.42-1.28,5.96-.08,6.83,1.81,1.19,6.49-3.11,7.04-4.34.81-1.87.4-3.49,2.04-6.11,1.47-2.32,2.7-5.42,3.79-7.02,1-1.47,4.7-4.25,6.19-5.62.47-.43.87-1.51.94-1.55.51-.28,1.53.43,2.32.32.74-.11,1.25-1.02,2.13-.83.26,2.23.85,4.11,0,6.34,2.77-.4,5.77,1.32,6.59,4.06.28.98.08,1.94.34,2.83.36,1.26,1.85,2.64,1.15,4.34l-3.53,3.04c1.34.77,2.28,3.57,3.81,3.42,1.94-.19,1.28-2.19,1.85-3.19.4-.7,2.32-1.34,3.06-1.81s.34-1.45,1.89-1.38c.98.06,4.26,2.77,5.04,3.62,1.36,1.49.91,3.25,3.81,2.76-.25,2.02.92,2.34,2.28,3.38-2.53,1.19-.98,1.75-.57,3.3.58,2.15.62,2.47.55,4.42-.15,3.62,4.21,2.08,6.15,3.36,1.23.81,1.15,2.04,1.74,3.04.26.47,1.49.89,1.25,2.38,3.34.75,2.28-.66,3.36-1.75,1.02-1.04,4.64-2.3,5.68-3.43.4-.42-.04-1.02.04-1.06.23-.15.89.15,1.34-.32.6-.66.64-2.6,1.11-3.32.34-.51,1.3-.58,1.51-1.23.38-1.15-.89-2.64,1.09-4.08s2.21.25,2.42.3c1.75.47,6.25-1.42,6.51-3.42.11-.94-.79-2.32-.28-2.94.43-.53,1.57-.28,2.08-.66.58-.42.4-1.77,1.19-2.02.4-.11,3.4.49,4.4.02l2.13,3.57c1.4.4.72-1.4,2.02-1.38.25,0,3.13,2.25,3.26,2.42.68.98.77,4.08,1.08,5.42.43,1.91,1.02,4.36,1.45,6.77.13.72,1.08,4.68,1.28,4.83l1.74.08c.17-8.06,7.44-9.21,6.34-.45,2.02-.83,3.76.04,4.79,1.83,1.87-1.06,6.4-.85,7.91-1.59.58-.28.79-1.59,1.81-1.83-2.13-2.6-2.3-5.32-1.79-8.57.34-2.26,1.7-1.87,2.92-2.96.83-.74,2.21-2.55,2.96-2.92.72-.36,2.21.17,3.02-.36.36-.23.98-1.83,1.72-2.15l-1.09-5.36c1.21-1.57,5.26-.28,5.74-.58.51-.32,2.62-4.85,2.72-5.7s-.42-1.55-.28-2.49c.26-1.94,2.19-3.11,2.21-3.32.02-.38,0-3.04,0-3.59-.06-1.08-1.38-7-.91-7.47h3.62c-1.08-2.36-1.08-5.3-3.17-7.02-.04-1.06,1.34-.38.91-2.02h-1.36c-.43-1.42,1.34-2.81,1.34-3,0-.42-.43-.96-.32-1.64.23-1.34.49-2.68.79-3.98,4.85,2.06,2.59-3.45,4.76-5.43.7-.64,2.45-.66,3.57-1.42s2.11-2.68,3.04-3.28c.58-.4,1.47-.25,2.06-.68.92-.7.51-2.49,1.04-3.38.4-.64,1.62-.53,1.79-.81.09-.13.42-3.09.4-3.26-.08-.43-.77-.75-.79-1.42,0-.13,1.49-.45.98-2l1.25-.08.11-1.72,1.75-.75-.28-1.17-3.32-1.34.98-4.4,4.23-1.47-.26-3.62c1.51-.08,3.28.49,4.34-.91l-1.15-4.98,1.81.45-.91-2.04c1.59-.72,1.75-.92,2.49-2.49l1.13,4.98,3.15-.47c-.7-1.85.92-2.36.94-2.51.06-.91-.94-2.96-.47-4.26,2.34-.26,6.79-.47,8.89-1.26.94-.36.83-1.42,2.32-1.79,1.59-.42,9.1-.34,9.17-1.23.06-.57-1.34-2.19-1.68-2.85-.3-.57-.21-1.43-.62-2.09-.4-.62-3.13-2.45-3.43-3.11-.4-.91-.23-2.43-.64-3.43l-6.68.34c-.79-6.15-6.89-9.94-5.96-16.23l-4.51-.92c-.4-.43,1.57-3.28,2.72-2.72v-.66c-2.87-5-7.85-6.94-11.78-10.91-3.94,2.42-6.49,3.04-11.1,2.96-.64,0-1.32-.47-1.77-.45-.26,0-.26.7-.62.87-4.17,1.89-8.98-.4-13.36.58-1.83.42-2.89,2.87-3.93,3.26-.47.19-1.19-.26-1.83,0-2.25.87-2.81,2.28-5.66.72-.66.17-.43,3.85-1.85,4.53-2.17-1.89-3.91.15-5.3-.06-.92-.13-6.66-3.83-6.66-4.23l1.79-2.04c-1.59-.19-3.47,1.53-4.74.45s-2.64-4.17-4.25-5.3c.21-1.98.66-3.55-.11-5.51-.49-.4-5.45-.28-6.43-.51-.34-.08-.26-.81-.62-.89-.58-.13-1.62.19-1.91-.08-.13-.11.08-.83-.17-1.13-.47-.62-1.08-.11-1.26-1.72-.25-2.02.91-3.26.94-4.6.02-.91-.53-2.45-.51-4.53,0-1.85-.08-3.74.06-5.6v-.08h0l-.04-.04Z"/>
  </g>
</svg>