<?xml version="1.0" encoding="UTF-8"?>
<svg id="Calque_2" data-name="Calque 2" xmlns="http://www.w3.org/2000/svg" viewBox="0 0 201 242.63">
  <defs>
    <style>
      .cls-1 {
        fill: none;
        stroke: #000;
        stroke-miterlimit: 10;
      }
    </style>
  </defs>
  <g id="Calque_2-2" data-name="Calque 2">
    <g id="Calque_1-2" data-name="Calque 1-2">
      <path class="cls-1" d="M57.91,119.92l-1.39,1.39c-.21.47-6.08,5.11-7.17,6.01-3.64,3.03-7.58,6.68-11.1,9.71-2.05,1.77-6.47,5.53-7.63,7.17-.48.68-5.72,5.95-6.24,6.24-.16.09-.46-.03-.69,0-.27.27.16,6.36,0,7.63-.05.36-.88,2.41-.93,2.78-.37,2.93,1.27,5.34,1.85,7.86.12.54.44,1.68.46,1.85.11.72.14,3.06,0,3.7-.03.16-.76,1.09-.93,1.39-.07.12.06.36,0,.46-.19.29-1.52,1.16-1.62,1.16-.15,0-.27-.41-.46-.46-.26-.07-4.41.73-5.09.93-.55.16-.55,1.39-1.62.46v.93c-2.16.36-3.99,4.09-5.78,5.09-1.21.68-2.41,2.6-3.47,3.93s-2.85,2.73-2.78,4.39h-.93c-.12,1.68-2.24,3.61-1.85,5.32.04.17.37.26.46.46.06.14-.06.36,0,.46.21.36,1.23,1.3,1.62,1.62.86.7,2.12,1.33,3.24,1.85,1.42.66.82.56,1.16,1.16.99,1.79,3.34,1.77,4.16,3.24.63,1.14,1.94,1.59,3.01,2.08,1.28.59,2.43,3.01,3.24,3.24,1.42.41,1.42-.03,2.08,1.16s2.93,2.35,4.16,2.54v.93c2.43.31,2.99,3.57,6.01,3.7v.93l1.85.46v.93c2.28,1.17,4.67,4.42,7.86,5.09v.93l1.85.46v.93c3.16,1.04,4.71,4.66,8.33,5.09v.93h1.39c0,1.36,2.4,2.49,3.7,2.78v.93l4.39,2.31c1.06-.79,2.16-.97,3.01-2.08,2.07-2.74,8.1-9.12,10.41-10.41.69-.39,1.06-1.66,2.08-1.39v-.93l1.85-.46v-1.39c.96-.22,3.75-1.35,4.16-2.08s-.23-.36,1.16-1.16c1.52-.87,3.15-1.02,4.63-1.85.73-.41.55-1.3,1.62-.46v-.93l.93-.46.93.46v-.93h.93v-.93c1.71.23,3.17-.92,4.39-1.85.23-.18,1.13-1.05,1.16-1.16.25-.93-.49-2.48.46-3.24-.03-.86-3.18-.83-3.93-.69-.18.03-1.62.87-1.85.93-.45.11-1.11-.07-1.62,0v.93l-.69-.46c-.76.95-1.86.73-2.78.93-.18.04-.29.43-.46.46-.48.07-1.93.11-2.31,0-.73-.2-1.31-2.1-2.08-2.54,1.19-.84.07-2.26,0-2.78-.16-1.13.44-2.29-.69-3.01h-12.49c-1.06-.64-.41-2.84-1.85-3.24-.85-.24-3.04.39-3.47-1.16-.31-1.14.15-3.64,0-5.09-.02-.17-.43-.29-.46-.46-.12-.86.35-2.72-.69-3.01-1.18-.33-3.38.75-3.93-.93l2.08-1.85,1.62-.46v-.93h1.39v.93c1.59-.1,3.66,2.83,4.39,3.24.22.12.61-.09.69,0,.06.06-.16.84.69,1.39,1.8,1.15,1.43,1.68,2.08,3.47.1.27.71.39.46,1.16l2.31.46v-.93c1.87.41,2.49-1.13,3.93-1.85l1.62.46v1.85h.93c0,1.8.73,3.18,2.78,2.78v.93c1.1-.19,2.66.8,3.47.93,1.48.22,6.89.24,8.33,0,.31-.05.33-.89.93,0l1.62-.93v-.93c3.29-1.18,5.95-3.35,9.02-5.09.36-.2.4-.68,1.16-.46v-1.39c1.06.28,1.6-.79,2.08,0,1.48-1.95,4.02-1.03,6.01-1.39.17-.03.27-.4.46-.46.27-.09.63.08.93,0,.24-.07.61-.75.93-.93.22-.12.61.09.69,0s-.12-.48,0-.69c.31-.55,1.12-1.16,1.39-1.85-.61-1.08-.05-1.11,0-1.39.14-.83-.19-2.07,0-2.78.11-.4,1.27-.74.93-1.62,2.11.1,3.43-2.35,4.16-3.93.62-1.34,1.24-1.82.93-3.7-.03-.18-.46-.31-.46-.46s.43-.29.46-.46c.35-2.1-.25-4.96,0-7.17h-.93c.4-1.85-.94-2.49-2.08-3.7-1.83-.23-3.53-.68-5.55-.46-1.52.16-3.64,1.04-5.09,1.39-3.96.95-8.49,1.36-12.03,3.24l-.93-.46-.93.93-.93-.46-.93.93-.93-.46-.93.93-.93-.46c-.74,1.48-3.55,1.11-3.93-.23-.3-1.04-.22-1.5-1.39-2.31l-1.39-3.24c.78-.43.29-1.23.46-1.85.21-.76,1.62-2,1.85-2.78.33-1.14-.93-1.66-.93-1.85.68-.44.23-2.4,0-3.24-.03-.11-1.15-1.31-1.39-1.85-.11-.24.09-.62,0-.93-.04-.12-1.83-1.48-2.08-1.62-.16-.09-.46.03-.69,0-.27-.27.21-6.38,0-7.63-.03-.18-.46-.31-.46-.46l1.62-2.08c.91.37,1.61-.41,1.85-.46,1.92-.44,4.1-.14,6.01-.46.64-.11,1.78-.81,2.31-.93,1.66-.36,4.45-.14,6.24-.46v-.93c.93-.39,2.16.56,2.54.46,4.41-1.22,8.83-1.62,12.95-2.78,1.95-.55,4.08-1.46,5.55-1.85,2.88-.77,5.35-2.04,8.09-2.78v-.93c1.46-.08,2.63-1.6,4.16-1.39v-.93c1.07.17,1.36-.81,1.85-1.62.12-.2-.08-.57,0-.69l.05-1.82.87-1.88v-.93h.93c.06-.67-.1-1.44,0-2.08.32-2.05.97-4.3,1.39-6.48,1.38-7.1,3.58-15.85,7.86-22.2.69-1.03,5.55-6.92,5.55-7.4,0-.12-.69-.5-.46-.69h.93c-.35-1.09.64-1.77.93-2.54,1.25-3.37,1.01-7.94,1.85-11.56.04-.18.42-.28.46-.46.19-.71.17-2.05.46-2.78.38-.96,2.07-3.16,3.01-3.93,1.88-1.54,4.65-3.31,6.71-4.63v-.93c3.88-1.51,7.06-5.24,10.87-7.4.26-.15,1.04-.34,1.39-.46.19-.07.29-.43.46-.46,1.29-.29,2.26.62,3.01,1.62,1.21,1.63,2.13,4.26,3.24,6.01.46.72,1.6.79,2.08,1.62.86-.38,1.71.44,1.85.46,2.9.43,5.8-.34,8.33-.93.42-.43,1.91-.99,2.08-1.62.23-.82.09-4.88,0-6.01-.27-3.36-1.28-7.34-1.85-10.64-.23-1.34-.19-3.02-.46-4.39-.77.38-2.66-2.46-2.78-3.01-.33-1.55-.23-9.74,0-11.56.02-.17.43-.29.46-.46.28-1.52-.8-3.48-.46-5.55.03-.18.46-.31.46-.46l-3.93-3.93-.46.46c-.81-1.23-2.14-2.34-3.7-3.24-.56-.32-1.65-.68-2.31-.93-.45-.16-.8-.75-1.85-.46-.14.04-1.93,1.84-2.08,2.08-.06.1.06.32,0,.46-.09.2-.43.3-.46.46-.26,1.18.32,2.03.46,3.01,1.19-.28,1.12.77,1.39,1.16.35.49,1.09.91,1.39,1.39.08.12-.06.7.46.93-.69.38-.33.93-.46,1.39s-6.25,6.58-6.71,6.71c-.29.08-.65-.09-.93,0-.19.06-.29.43-.46.46-.96.17-2.24-.15-3.24,0-.37.06-1.53,1.18-2.31,0-1.4.84-2.93,1.59-3.93,3.01-.07.1.07.35,0,.46-.58.9-1.04.53-1.62.69-.4.12-.69,1.28-1.85.93-.19-.06-.29-.43-.46-.46-1.8-.32-4.34.23-6.24,0v.93l-1.16-.46c-.37.59-1.48.68-1.85.93-.71.47-2.34,2.66-2.78,2.78-.39.11-.99-.11-1.39,0-.18.05-.28.41-.46.46-.29.08-.64-.08-.93,0-.19.05-.31.46-.46.46-.27,0-2.71-.8-3.24-.93-1.07-.25-1.32.24-1.85.46-.25.1-.62-.08-.69,0-.09.09.12.48,0,.69-.24.43-1.3,1.08-1.39,1.39-.19.7-.19,2.01-.46,2.78-.1.27-.71.39-.46,1.16-1.38.21-2.81.74-3.7,2.08-1.03,1.55-1.34,4.3-2.31,6.01-1.15,2.01-3.54,3.89-4.63,6.01-1.62,5.37-1.53,10.9-2.78,16.19-.51,2.16-1.66,4.65-2.31,6.94-.08.28-1.59,1.85-1.85,2.31-.12.22.09.61,0,.69s-.48-.12-.69,0c-1.35.75-6,5.25-7.17,6.71-1.93,2.41-3.04,5.89-5.09,8.33-1.92,2.29-4.46,4.03-6.01,6.48-.43.68-1.13.59-1.62,1.16l-5.09-5.09-1.16.46v-.93c-2.64-.34-4.51.55-6.71,1.85-1.29.77-3.01,1.85-4.16,2.78-.71.57-2.4,2.36-2.54,3.01-.3,1.34.37,2.76-.46,4.16-.19.32-1.27,1.36-1.62,1.62-.68.5-2.12,1.29-3.01,1.39v.93c-7.61,2.1-12.56,8.65-18.5,12.95"/>
    </g>
  </g>
</svg>