<?xml version="1.0" encoding="UTF-8"?>
<svg id="Calque_2" data-name="Calque 2" xmlns="http://www.w3.org/2000/svg" viewBox="0 0 225.2 215.17">
  <defs>
    <style>
      .cls-1 {
        fill: none;
        stroke: #1d1d1b;
        stroke-miterlimit: 10;
      }
    </style>
  </defs>
  <g id="Calque_1-2" data-name="Calque 1">
    <path class="cls-1" d="M130.59,16.54c-.99-.07-2.01.04-3,0,.55-1.61-.93-2.11-1-2.5-.75-4.28,2-8.31-5-7.5v-2c-3.66.77-3.44-1.93-5.5-4l-5,1c-.93,1.48-3.96.65-4.5,2.5-.15.52-.35,2.5.5,2.5l1.5.5c-1.67,1.43-2.93,3.42-3,5.5-1.11.14-2.51-.23-3.5,0-4.24.97-2.25,2.89-9,1-1.04-.29-2.62,1.74-4.5,1-.4,2.21.38,3.19,2,4.5v8.5c-.23,2.01-1.29,2.8-2,5-2.04-.17-2.69,1.92-5,.5-1.14-.7-.94-2.51-2.5-3.5-.2-.13-.68.15-1,0-.43-.2-.65-.92-1-1-1.27-.28-3.09.19-4.5,0v2l-6,2v2c-3.6-1.54-5.23,2.65-6.5,3-2.08.57-4.43-.52-7,1-.98.58-1.39,1.95-1.5,2-.8.37-1.5.76-2,1-.69.34-1.59.81-2,1-.51.24-2.08-.12-3,0-3.43.44-2.18,1.17-3,3-.03.06-1.18-.16-1,1h-3v-2c-.4-.4-5.14.38-6.5,0-.98-.27-3.02-3.44-6.5-2,.62-1.26-3.78-5.79-4.5-6-2.54-.73-3.15,1.77-4,2-1.17.32-3.13-.21-4.5,0l-1,5,5-2c.69,1.93-1.78,2.68-2,3.5-.29,1.06.05,3.13,0,4.5-.07,1.65.04,3.34,0,5-2.65.18-5.4-.87-7,1.5-.05.63.98.45,1,.5.18.38-.17,1.48,0,2-2.46,1.08-3.46,2.88-3,5.5l1,.5c.19,1.38-1.02,2.94-2,4-.6.65-2.16,1.35-3,2.5-.15.21.16.76,0,1-1.53,2.25-2.39,1.59-2,5.5.17,1.71.58,1.77,1,3,.32.96.53,2.47,1,3.5.32.71.98.45,1,.5.27.56.53,2.72,1,3.5.33.55,1.28,1.49,2,1.5l-1,11c1.76-.14,2.32-.32,2,1.5l1,.5c-.15,1.1.24,2.53,0,3.5-.17.68-.98.45-1,.5h-3c-.76,2.34.94,2.83,1,3,.17.5-.18,1.53,0,2l-2,3.5c-.45,1.62.95,1.4,1,1.5.13.28.13,5.72,0,6-.12.26-.47.41-1,2-.1.29.09.68,0,1-.04.15-1.6-.11-1,2.5.16.68.98.45,1,.5.16.46-.08,1.36,0,2,.69-.35,2.92.84,3,1,.32.68-.18,2.17,1.5,3,3.24.58,5.59-.9,8.5-1v-2l2-1c-.07,1.37.97.91,2,1,1.78.15,4.22.16,6,0v1.5c1.25,2.2,2.91,1.1,4.5,1.5.5.13,3.32.92,3.5,1,1.93.91,3.78,1.41,6,3,2.05,1.47,2.41.83,5,1,.35.02.73-.07,1,0,.15.04-.08,1.64,2.5,1,.68-.19.38-.73.5-1,.6-1.37,1.71-3.49,1-5h2v-4l4,1v-1.5c.18-.61.56-.43,1-.5,1.9-.3,3.26-.71,5-1l.5,5c1.65-.68,2.59.89,3,1,1.88.48,3.34-.7,5,2,.66,1.08.57,1.83.5,3,1.62.29.81-2.51,2.5-3,.67-.19,3.07-.07,3.5-1,1.15,1.34.7,2.46,1,3.5.27.94,2.92,2.32,3,2.5.26.56-.55,2.11,1,2l-1,2.5c.58.76,1.13,1.12,2,1.5,1.29.57,1.32,1.45,1,3-.22,1.09-1.34,1.34-1,2.5.14.47,1.54,1.32,2,2,.27.4.26,2.46,2,2.5-.2,1.75-.35,7.05,0,8.5.16.67.96.46,1,.5.9.9.86,1.35,3,1v2h8c.56,1.28,3,3.12,4,5,.16.3-.21.98,0,1.5.93,2.26,3.71,1.17,5.5,1.5.26.05.48.84,1.5,1,.48.07,1-.08,1.5,0,2.19-1.26,1.12-2.88,1.5-4.5.09-.39.92-.62,1-1,.21-1.03-.13-2.38,0-3.5h3c3.71-.26,6.57-.37,6,4h2l1,2c-.1.59-.04,1.36,0,2s-.02,1.34,0,2c.99.05,2.02-.08,3,0,.33.03.67-.02,1,0v2l2-1c.43-.44,1.83,1.7,3,2,.57.15,1.52-.17,2,0,.12.04,1.04.57,2,1,.05.02-.18.83.5,1,1.23.3,3.11-.2,4.5,0,.56.75.76,2.04,1,2.5.38.72.98.45,1,.5.11.29.1,1.79,0,2-.06.13-1.13.77-2,2-2.31,3.28-1.33,4.57-2,6-.06.12-1.52-.07-1,2,.62.09,1.66-.17,2,0,1.92.93,3.33,5.54,4,7l-1,.5c-.04.5.04,1.01,0,1.5-.08.98.05,2.01,0,3,1.35-.39,1.85.61,3,1,.18.06.82.06,1,0l3.5,2,1.5-1.5c-.55-.49-.89-.72-1-1.5-.18-1.29.13-2.7,0-4,2.82.96,4.49-3.18,7-2,.12.06-.07,1.52,2,1-.4-2.4,2.76-2.86,2-5.5-.49-1.7-2.69-1.37-4-1.5-.65-.06-1.34.03-2,0-.16-2.29.23-4.74,0-7-.03-.33.04-.67,0-1h2v-4h1.5l.5-1c.4.15,1.35-.02,2,0,.94,2.67,3.06,2.67,4,0,.66,0,1.34.03,2,0,.82-.04,1.67.03,2.5,0l.5-1c1.02.48,4.46-.33,6,0,0-.66-.03-1.34,0-2,.07-1.65-.05-3.34,0-5,.66-.02,1.34.03,2,0,.99-.05,2.01.03,3,0l-1-1.5c.12-.65-.17-1.4,0-2,.1-.35,2.68-2.82,3-4,.26-.97-.27-3.9,1-4.5.8-.38.72.28,2-1,.92-.92,1.98-.78,0-2.5.96-.64,1.39-1.63,2-2.5.03-.05.75.2,1-.5.07-.5-.06-1.02,0-1.5.04-.3.04-.71,0-1,.66-.02,1.34.04,2,0s1.34.02,2,0v-2c2.26.39,4.85,1.73,7.5,1,.17-.05,2.45-2.33,2.5-2.5.18-.63-.19-1.41,0-2,.13-.41.92-.63,1-1,.21-1.02-.13-2.38,0-3.5l-4.5,1-.5-5c1.76-.23,3.78-2.76,5-3,1.88-.37,4.83.46,6.5,0,.33-.09,2.88-2.75,4-3,.99-.23,2.39.14,3.5,0,.14-1.11-.23-2.51,0-3.5.08-.36,1.92-2.65,2-3,.62-2.8-1.55-5.06-2-7-.59-2.53,1.81-5.07,1-8-1.43-2.17-3.6-1.44-6-1.5v-3h2c.74-1.89-1.76-2.64-2-3.5-.3-1.09.3-2.91,0-4s-5.97-5.37-7-7c-.55-1.88,1.55-3.12,1-5-.05-.17-2.33-2.45-2.5-2.5h-4l-3.5,4c-.05.02.13,1.05-.5,1-1.22-1.68-3.49-.84-5.5-1l-1,.5c-.19.5.14,1.13,0,1.5-.23.6-.35,1.1-1,1.5v1.5c-1.2-.53-1.76-2.98-3.5-4l-4.5,1-1-7c-2.64-.08-4.05,1.32-7,1-.51-.06-1.09.16-1.5,0-.9-1.41-2.75-3.25-3.5-4.5-.14-.23.15-.74,0-1-.41-.72-.98-.45-1-.5-.17-.38.09-1.37,0-2-1.65.07-3.35-.11-5,0-.49.03-1-.04-1.5,0l-.5,1c-4.35.79-4.89-5.16-9.5-4l-.5,1h-2c-.02-.99.03-2.01,0-3-.04-1.32.03-2.68,0-4h-3c-.02-.99.03-2.01,0-3-.02-.66.04-1.34,0-2-.03-.49.04-1,0-1.5l-1-.5c.41-.88-.28-3.66,0-5h-4c.14-2.74.7-4.46,1-7,.11-.97-.08-2.02,0-3,.13-1.67-.14-2.47,1-4h-2c.11-.9.08-2.07,0-3-.07-.82.04-1.67,0-2.5-1.75-1.96-4.67-1.73-4-5l-1-.5c-.02-.65.14-1.49,0-2,2.37-1.01,3.58-2.97,3-5.5-.05-.23-.66-1.02-1-2.5s-.98-2.36-1-2.5c-.26-2.03.18-4.41,0-6.5h-3l1-1.5-6.5.5-.5,1c-.27-.07-.65.02-1,0Z"/>
  </g>
</svg>