<?xml version="1.0" encoding="UTF-8"?>
<svg id="Calque_2" data-name="Calque 2" xmlns="http://www.w3.org/2000/svg" viewBox="0 0 251.06 352.7">
  <defs>
    <style>
      .cls-1 {
        fill: none;
        stroke: #000;
        stroke-miterlimit: 10;
      }
    </style>
  </defs>
  <g id="Calque_1-2" data-name="Calque 1">
    <path class="cls-1" d="M149.76,330.8c.17-.16.38-.33.63-.49.77-.54.61-.8.97-1.27.8-1,.7-.07,1.41-.38,1.05-.44,1.11-1.38,1.12-2.38,0-.1-.03-.15-.06-.23-.15-.32-.9-1.03-1.19-1.31-.51-.48-.77-1.56-.71-2.21.1-.97.47-.96.79-1.57.35-.65.52-1.41.96-2.01.41-.57.47-1.54,1.06-1.67.63-.13.54-.84.33-1.28-.54-1.19.17-1.53.51-2.63.29-.97.8-1.79,1.18-2.73.1-.71.22-1.56.77-2.08,1.5-1.4.84-2.17,1.37-3,.48-.74.6-1.25.6-2.15,0-1.38.12-1.11.49-2.25.16-.51.04-1.09-.12-1.6-.38-1.13.99-1.51.36-2.62-.45-.8-.47-.81-.7-1.88-.04-.6-.35-1.03-.35-1.77,0-1.05-.03-1.41-.17-2.41-.09-.6.19-1.44.12-1.96-.03-.25-.48-1.24-.61-1.45-.35-.61-.47-1.19-.7-1.77-.06-.13-.49-1.6-.54-1.77-.23-1.05-.71-1.8-1.22-2.75-.09-.58-.54-.52-.52-1.43,0-1.43-2.33-.22-3.14-.42-1.21-.31-.49-.17-1.75,0-.97.13-.79-1.32-.74-1.98.06-.83.04-.32-.17-.97-.29-.83.06-1.29.31-2.05.58-1.76.65-2.02.07-3.87-.09-.26,0-.68-.06-.74-.22.17-.54.87-.74,1.18-.23.33-.22.61-.49.95-.23.28-.45.76-.74.48-.42-.41-.28-1.16-.31-1.6-.06-.77.07-.65.17-1.29.09-.54.39-1.29-.36-.97-1.12.47-1.7.47-2.84.73-.54.13-1.29.22-1.79.35-.55.15-1.24.19-1.73.32-.79.2-1.48.17-2.3.33l-.06-.09c-.35-.49-.35-1.18.07-1.59.84-.81.6.92.63.99.06.2.8-.47.89-.58.9-1.08,1.43-1.06,2.47-1.76.39-.26,1.09-.51,1.35-.7.51-.35,1.6-1.25,1.59-1.92,0-.77.33-1.48-.7-1.51-.99-.03-.33-.73-1.05-1.13-.97-.57,0-1.93.26-2.65.04-.15-1.35.09-1.48.04-.58-.23.1-1.7.29-2.04.49-.83.92-.7,1.4-1.92.23-.38.48-.84.68-1.25.1-.2.61-1.12.51-1.31-.22-.39-.35-.61-.79-.38-.39.2-2.18,1.35-2.49,1.44-.25.07-.54-.63-.49-.81.06-.26,2.34-2.09,2.7-2.54.32-.39,2.2-2.01,2.18-2.25,0-.54-1.35-.17-1.8-.28-.99-.22-.83,1.21-1.57,1.4-1.11.28-.04-1.34-.81-1.82-.68-.42-.26-.32-.49-.76-.19-.35-.31-.6-.67-.41-.81.44-1.53,1.15-1.59,2.14-.04.8-.15.87-.47,1.57-.36.83-1.29.76-.9,1.64.22.48.06.87-.47.97-.55.1-.23-.63-.96.15-.33.35-.7-.12-.81-.39-.36-.81-.28-.47-.74-.99-.15-.16-.7-1.34-.76-1.54-.22-.77-.58-.64-.86-.87-.22-.19-.28-1.11-.31-1.31-.04-.16-.1-.28-.2-.41-.23-.35-.26-.55-.61-.71-.73-.33.1-.83.31-1.44.23-.73-1.21-2.21-1.86-2.11-1.02.15-.86,1.59-2.04,1.73-.61.07-.9.55-1,1.11-.23,1.24-1.16.47-1.45,1.24-.2.57-.73,1.03-1.35.77-1.5-.63.1-1.51-.36-1.67-.7-.25-.99.54-1.47.54-.51,0-1.57.84-1.99,1.18-.51.42-1.16,1.9-1.57.32-.16-.63-.35-1.35-.77-1.88-.54-.68-.2-.58-.22-1.27,0-1-.84-.83-1.45-.89-.89-.07-1.93-1.48-2.3-2.21-.29-.57-.68-1.02-.93-1.5-.55-1.05-.8-1.61-1.9-2.18-.6-.31-.83-.17-1.25-.38-1.12-.51-1.8-.52-2.28-1.82-.12-.32-.29-.35-.45,0-.19.42-.71.9-.73,1.13-.04.48.39.7.71.93.77.55,1.29.26,1.5,1.05.09.32.17.45.28.71.33.9.64.17.48,1.21-.12.86-.39.92.33,1.32.87.49.6.51.47,1.25-.17,1.08-1.32,1.73-.2,2.34.44.25,1.45.33,1.53.55.23.67.22,1.05-.01,1.76l-.06.06c-.54.63-.26.41-.95.92-.64.47-.73.2-1.24.52-.29.17-1.82,1.89-1.66,2.01.55.42,3.49-1.38,4.01-1.75,1.75-1.21,1.22-.13,1.85.44.42.39,1.34-.03.28,1.27-.19.23-2.24,1.86-2.47,1.96-.58.23-.52.15-1.13.49-.54.31-.97,1-1.38,1.12-2.17.68-.64,1.03-1.7,1.96-.26.23-.2.58.01.67.79.32,1.96-.45,2.43-1.06.2-.26.68-1.6,1.11-1.38.58.29-.63,1.09-.68,1.53-.06.38-.42.86-.8.95-1.27.29-.89.55-2.37.47-.73-.04-.45.13-.96.44-.93.57-.76-1.41-1.95-.25-1.27,1.24-1.03-.09-2.02.97-.31.33-.49,1.03-.81,1.02-.41-.01.07-.36-.92-.04-.99.33-.77-1.35-.77-1.85,0-1.12-1.53,1.7-2.27-1.38-.12-.51-.35-.65-.44-1.02-.22-.8-.32-1.02-1-1.56-1.13-.89-.19-2.02-.89-2.28-.76-.28-.77.1-.95-1.15v-.06c-.19-.96-.19-2.66-.09-3.66.09-.87-.22-1.28-.07-2.09.15-.79,1.92-2.01,1.45-2.47-.61-.6-1.92.03-1.66-1.19.29-1.4-.1-1.22-.1-2.24,0-.54.9-.83,1.32-.92.57-.12,1.9-.58,2.36-.89.87-.6,1.12-.45,1.99-1.44.71-.7.93-1.64.25-2.44-.23-.28-.2-.28-.38-.54-.13-.19-1.05.41-1.25.51-.7.35-.92.61-1.47.93-.86.51-1.69,1.45-2.78,1.32-.33-.04-.95.28-1.19.49-.73.63-.86,1.48-1.83,2.22-.7.52-2.15,1.27-2.62,1.92-.38.52-.68.83-1.37.93-.7.12-1.76-.51-2.02-.32-.68.49-.13,1.15-.49,1.7-.38.57-1.44-.31-1.61-.28h0c-.13-.35-.28-1.03-.36-1.31-.23-.7-.12-1.75-1.03-1.9-.79-.13-.68-.63-1.02-.73-.76-.22-1-.39-1.69.03-.77.48-1.16-.81-1.05-1.25.17-.64.29-.38.51-1.24,0-.13-.2-.81-.29-.93-.54-.71-1.09-.2-1.28-.2-.81.04-.41-1.98-.97-2.47-.45-.39-.09-1.8-.48-2.12-.64-.54-1.35.2-1.35-.86,0-1.12.68-2.41.58-3.18-.04-.32-.06-.25-.16-.49-.12-.31-.95-.68-.32-1.12.29-.2.49-.61.48-.96-.03-.83-.23-.68.12-1.69.32-.19.48-.16.83-.25.87-.22,1.54-.99,2.01-1.73.32-.51.89-1.99.96-2.57.2-1.61.57-1.92-.25-3.49-.32-.64-1.25-1.29-1.02-2.04.25-.79.31-1.56.38-2.37.07-.9.17-1.4.67-2.24.06-.09.1-.13.15-.2.41-.58.64-.83.93-1.45.26-.6-.03-2.12-.16-2.78-.16-.74-.19-1.64-.32-2.37-.15-.76-.2-1.24-.55-1.93-.42-.84-.07-1.02-.15-1.56-.16-1.06-1.06-.2-1.16-1.59-.04-.71-.54-.97-.44-1.51.06-.38.47-.9.65-1.25.04-.39-.47-.9-.74-1.12-.86-.65-.19-1.44-.7-1.88-1.18-.97-.42-1.47-1.15-2.14-.58-.54-1.41-.68-1.59-.9-.23-.29-.1-1.27-.03-1.63.17-.95-.83-1.35-1.48-1.76-.57-.35-1.21-2.59-1.32-3.27-.25-1.37-.13-.92-.71-2.37l-.06-.1c-.28-.49-.57-.9-.84-1.35-.44-.77-1.09-2.31-1.59-2.94-.77-.97-1.35-1.57-2.62-1.72-.87-.1-1.79-.41-2.66-.23-1.61.32-1.47.17-2.84-.47-.89-.42-1.4.31-2.14.63-.71.31-1.16.03-1.6-.52-.25-.31-.35-.6-.52-.86-.42-.65-.33-1.54-1.02-2.02-.67-.48-1.28-1.15-1.7-1.86-.6-1.03-.36-1-1.31-2.02-.49-.47-.99-.71-1.41-1.32-1.15-1.69-2.21-1.41-2.65-1.95-.38-.48-.55-.83-1.02-1.31-.55-.57-.93-1.44-1.41-1.92-.48-.49-.79-.84-1.22-1.37-.63-.74-1.48-1.44-1.99-2.2-.76-1.15-1.21-1.03-2.33-1.35-.63-.17-.84-.47-1.22-1.08-.07-.19-.23-.22-.31-.65-.09-.6-.67-.9-1.21-.79-.89.17-1.11.97-1.6,1.44-.29.28-.42.7-.67.8-.15.06-1.16.1-1.31.07-1.99-.42-1.13-1.73-1.67-2.27-.33-.35-.61-.06-1.25-1.09-.68-1.12-1.32-1.53-2.53-1.96-.68-.25-1.15-.73-1.7-1.06-.83-.51-.96-.26-1.76-.26-.36,0-1.41.32-1.69.49-1.93,1.16-1.41-.52-3.53,0-1.43.35-1.05.79-2.65.35l-6.15-7.88-8.93-9.77-.47-1.47h0l18.4-23.78,30.92-40.08,9-1.47-2.38-5.54-.38-12.69-3.32-10.24-6.83-14.11,14.88-15.82h0l1.53-.95.31-1.69,8-1.31,15.08,2.22,18.31-.77h0l6.44,5.9c.23.26.49.63.68.93.16.26.7-.03,1.38.97.67,1,1.32.65,2.05,1.22.68.52,2.11-.29,2.57.95.16.42-.17,1.8-.32,2.24-.19.54-.32,1.56.25,1.92,1.02.65.44.58.87,1.32.35.58,1.45-.04,1.9-.16,1.37-.36,1.45.41,2.86-.33.8-.42,1.29-1.63,2.78-1.57.96.04.7.17,1.7-.28,2.04-.93,2.05.32,2.88-.22.48-.32.23-1.12.96-1.6.42-.28.86-.16,1.13-.96.25-.76.06-1.38,1.11-1.48.12,0,.2-.03.31-.06.52.1,1.05.13,1.56.31.58.2,1.32.03,1.88.67.19.2,1.21,1.19,1.4,1.28.8.33,1.47-.12,1.7,1.02.22,1.12,1.66.17,2.08,2.2.12.52.42,1.54.67,1.99.7.81.79.87,1.57,1.44.39.28.77.47,1.21.8.23.17,1.61,1,1.9,1.13.42.2,1.12.8,1.47,1.13.45.45.95.84,1.47,1.22.47.35.23,1.35.03,1.8-.28.6-.77,1.03-1.15,1.57-.47.65-1.16,1.41-1.7,2.06-.28.35-.55.63-.86,1.02-.36.48-.89.93-1.24,1.44-.31,1.19-.29,1.25-.84,2.21-.41.71-.57,1.83-.26,2.6.29.77-.83,2.28.35,2.66.31.1.61.32.95.39.29.06.61.57,1.41.79,1.59.44.8,1.06,1.76,1.85.8.65,1.25,2.46,1.83,3.43.1.17.22.42.28.61.42,1.28.6,2.69,1.02,3.94.38,1.09.19,1.93,1.28,2.69,1.13.79,1.32,1.47,1.59,2.73.17.84.97,1.19,1.02,2.69.06,2.02-.25,1.48,1,3.16l.04.06c.58,1.22.25,1.29.55,2.24.29.84.44.96,1.11,1.5.35.28.54,1.09.87,1.51.81,1.03.28,1.6.6,2.75.36,1.32.92,1.21,1.37,2.49.25.7.6,1.8,1.5,1.79,1.6-.03,2.31,1.37,3.08,1.38.73.01,1.56-.16,2.31.09.42.13.73.16,1.19.35.17.07.51.19.7.2,1,.17.77.29,1.45.54.64.23,1.24.71,2.01.61,1.05-.15.9.74,2.06.13,1.22-.65,1.05-.41,2.3-.41.52,0,.86-.04,1.06.58.22.71-.49,5.99-.77,6.69-.23.61-.45,1.75-.65,2.43-.06.19-.15.63-.16.83.17.96.25,1.53.26,2.46.04,1.45.35,3.13.47,4.61.1,1.25.17,2.56,0,3.81-.12.84-.23,1.92-.22,2.76,0,.29-.25,1.12-.28,1.4,0,1.67.41.89.61,2.14.09.48-.04,1.21-.48,1.48-.45.29-.15.17-.7.32-.25.06-1.22.8-1.37,1.08-.19.38-.23.31-.41.81-.33,1.05-.17,1.12-.03,2.11.13.83-.16,1.25.16,2.14.29.83.13,1.43.16,2.2.1,1.08.03,1.08-.25,1.93-.36,1.09-.15,3.33.38,4.36.49.96.79,1.25,1.12,2.37.16.52.67,1.76,1.02,2.14.47.51,1.32,2.31,1.9,2.46.57.15.74-1.06.77-1.41.06-.6.47-2.25.73-2.79.22-.47.76-2.17,1.45-2.04.33.07.6,1.41.71,1.73.29.86.52,2.65,1.35,3.11,1.32.76.67,1.03,1.16,2.17.09.2.19.65.19.87-.07,1.22-.2,1.59.06,2.78.09.42.54,1.88.48,2.18-.25,1.38-.64,1.25.52,2.34.45.42.83.93.97,1.54.15.67.76.54.33,1.5-.41.95.45,1.18.57,2.01.12.84.25,1.69.28,2.54,0,.25.06.49.06.76-.04.63-.38,2.89-.12,3.42.17.35.81.38,1.31.87.58.58.9.12,1.13-.49.25-.65-.65-.86.44-1.77.39-.33.86-.68,1.28-1.03.13-.1,1.56-1.11,1.61-1.13.36-.13.67.55.95.87.26.31.58.7.84,1.02.52.63.84,1.02,1.45,1.61.97.96.8,1.88,1.93,2.54,1.18.7,3.82-.19,4.32,1.95.28,1.16,0,2.54,1,3.43.65.58.58.61,1.38,1.06.54.31.97.77,1.25,1.32.76,1.32.57.86.87,2.27.32,1.48,1.98,1.24,2.44,1.67.9.81,2.33.65,3.23,1.76.45.55,2.38,1.48,3.11,2.22,1.63,1.66,3.43,1.5,5.6,1.29.65-.06,2.2-.25,2.81-.15,1.4.44,1.44.65,2.7-.16.47-.29,1.85-2.12,2.05-2.66.09-.25.83-1.61,1.02-1.69.28-.09,1.03.33,1.35.39.76.16,1.31.38,2.14.45,1.85.16,1.12.57,1.73,2.06.12.28.25,1.06.41,1.5.35.96.93,1.76,1.37,2.72.45.99,1.09,1.89,1.56,2.88.13.29.36.71.52.99.39,1.56.86,3,1.56,4.42.58,1.18.54,2.14.6,3.42.07,1.59-.1,1.96-.52,3.42-.23.8.25,1.22.25,2.11v1.53c.44.99.76,1.75,1.09,2.75.15.42.33.8.44,1.27.17.8.51,1.56.64,2.38.04.32.7,2.78,1.28,2.18.16-.17.55-.49.76-.23.09.13.26.22.42.45.55.81,1.51,1.82,2.17,2.57.67.79,1.02,1.4-.1,1.92-1.08.51-.96,1.34-1.6,1.47-.57.12-.7-1.13-1.82-.35-.64.45-.12.9-.23,1.38-.45,1.09-.23,1.09.48,1.77.58.55,1.18.87.49,1.8-.33.47-.49.41-.83,1-.55.99-1.21,1.73-2.21,2.24-.6.31-2.4,1.53-2.73,2.04-.1.15-.71.84-.87,1.03-.32.39-.68.74-.97,1.09-.92,1.11-.96,1.24-1.48,2.62-.33,2.46-1.16,2.21-1.86,4.22-.35.99-.81,2.22-1.27,3.16-.44.9-1.27,4.38-1.18,5.34.12,1.34-1.08,1.16-1.27,2.66v.07c-.23,1.69-.38,3.34-.63,5.02-.22,1.47-.23,2.22-.83,3.65-.33.79-.25,1.75-.35,2.56-.04.38-.04.71-.1,1.13-.17,1.11-.55,2.14-.76,3.24.1,1.6-.55,2.7-.55,4.3,0,.6-.04,1.19-.04,1.82,0,.79-.15,1.75-.13,2.6,0,.83-.54,4.13-.84,4.81-.22.49-.36,2.22-.36,2.78.04.99-.07,1.4-.23,2.3-.41,2.22-.17,4.77.07,6.99.12,1.09.12,2.34.23,3.48.09.93.19,1.82.29,2.75-.23,1.21-.16,1.86-.55,3.05-.81,2.49-1.03,2.95-.49,5.67.17.9.47,1.82.67,2.72.23,1.03.41,1.77.86,2.75.22.47.42.92.6,1.4.41.74.54,1.44.93,2.15.31.55.97,1.27,1.34,1.85.65,1.08,1.24,1.27,1.67,2.56.26.8.63,1.64.89,2.43.33,1.02.47,2.14.92,3.17.33.76.47,1.08.92,1.8.28.44.42.73.6,1.19.48,1.31.33,1.47.55,2.63.17.99.33,1.9.79,2.81.48.96.51.87.77,1.99.15.65.87,3.16,1.34,3.5.54.41,1.09.32,1.29,1.24.28,1.25.15,1.31.95,2.41.09.12.29.55.38.71.07.68.15.58-.25.9s-1.37-.29-1.59.81c-.09.42-.44.76-.77.97-.19.12-.48.86-.71,1.16-.29.38-.58.73-.77,1.18-.13.29-.79.9-1.19.71-.76-.36-.73-.86-1.75-.67-1,.19-1.02.33-2.12,0-.86-.25-.9-.31-1.64.33-.83.73-.71.83-1.72.41-.64-.26-1.06,1.28-1.9,1.05-1.27-.36-1.82-.13-2.88.54-.93.6-1.24-.41-2.02.45-.17.19-.42.8-.84.79-.39-.01-.39-.17-.89.09-.68.38-.51.84-.71,1.12-.03.97.06,1.5-.89,1.9-.63.26-1.13-.29-1.63.39-.29.41.12,1.83-.06,2.17-.22.42-.09,1.5-.77,1.5-1.11-.01-.25.79-1.22,1.67-.33.31-.38.45-.81.77-.48.36-.79.74-1.31,1.03s-.8,1.5-1.12,2.08c-.42.77-.51,1.77-1.37.96-.92-.87-2.79-1.32-4.01-1.53-.48-.07-1.43-.01-1.86.2-.68.33-1.06.42-1.8.36-.65-.06-1.21.48-1.66.89-.2.19-.97.71-1.25.89-.68,1.12-1.05,1.59-2.38,1.53-.97-.04-1.98-.95-2.69-1.56-.65-.57-.97-1.4-1.44-2.11-.99-1.54-.7-2.05-.96-3.69-.16-1.02-.17-.29-1.38-.15-.45.04-1.05.22-1.57.28-.51.06-1.63.28-1.98-.16-.61-.74-1.03-.63-1.89-.8-1.16-.25-2.38-.26-3.55-.51-.28-.06-1.11-.07-1.47-.12-.52-.06-1.03-.1-1.57-.17-.63-.07-1.09-.28-1.69-.45-1.19-.36-.89-1.69-1.11-2.72-.26-1.24-.26-1.77-.77-3.02-.49-1.21-.6-1.51-1.99-1.72-.95-.15-2.94-.16-3.68.49-.45.39-2.3,1.7-2.85,1.83-.73.17-2.5.09-3.26-.06-1.61-.31-2.7-.55-4.26-1.13-1.24-.65-1.8-1.64-3.36-1.98-1.5-.32-1.88,2.44-3.59,2.68-.63.09-.51-.87-.73-1.41-.77-1.92-1.02-2.46-2.47-3.94-.17-.17-.51-.9-.7-1.09h0v.07l-.07.04h-.02Z"/>
  </g>
</svg>