<?xml version="1.0" encoding="UTF-8"?>
<svg id="Calque_2" data-name="Calque 2" xmlns="http://www.w3.org/2000/svg" viewBox="0 0 251 271.01">
  <defs>
    <style>
      .cls-1 {
        fill: none;
        stroke: #000;
        stroke-linejoin: bevel;
      }
    </style>
  </defs>
  <g id="Calque_1-2" data-name="Calque 1">
    <path class="cls-1" d="M129.49,23.93l14.32-1.02-1.02,3.58c.72,1.61,2.29,2.9,3.07,4.09.27.41,2,2.89,2.05,3.07.4,1.46-.04,3.34,1.02,5.12.51.86,1.89,1.66,2.56,2.56,2.04-.81,3.47.87,4.09,1.02,3.04.77,6.22.73,9.21,2.05,1.46.64,3.72,2.56,5.12,3.07.58.21,1.41-.2,2.05,0,.55.18,1.03,1.61,3.07,1.02,1.47-.92,7.55-6.98,8.19-7.16,1.86-.53,4.42-.59,6.14-1.02.4-.1.62-.93,1.02-1.02,1.18-.27,2.84.23,4.09,0,2.14-.38,3.74-1.45,7.16-1.02.38.05.65.99,1.02,1.02,4.88.46,9.69-.36,14.32,1.02.53.16.88,1.58,2.56,1.02.15,1.14-.24,2.58,0,3.58.03.12.9,1.84,1.02,2.05,1.96,3.29,8.28,7.3,10.74,10.74h1.02c.84-1.53,2.07-.74,3.07-1.02.42-.12.64-.95,1.02-1.02,1.37-.26,3.14.16,4.6,0l1.02,8.7-4.09,8.19c.93,1.48,5.85,5.1,6.14,6.14.24.87-.24,2.2,0,3.07.12.45,1.92,2.62,2.05,3.07,1.22,4.47,3.59,12.33,4.09,16.37s.89,9.69-4.09,8.7c-.24,2.38.92,8.53-1.53,9.21-.87.24-2.2-.24-3.07,0-.52.14-6.97,6.71-7.67,7.67-.2.28-2,2.89-2.05,3.07-.96,3.35-.56,5.93-1.02,9.21-.35,2.52-1.64,7.72-3.07,10.23-2.38,4.17-2.47,5.63-4.09,9.21-.96,2.12-2.09,3-3.07,5.12-1.09,2.37-2.06,4.76-3.07,7.16s-2.19,4.71-3.07,7.16l2.05,7.16c.31,1.08,5.18,4.52,6.14,6.14,2.25,3.78.25,9.93,1.02,14.32.27,1.47,3.11,6.49,4.09,9.21.21.6,1.57.87,1.02,2.56l2.05-.51v-1.53c2.57-.12,4.7-.49,5.12,2.56.24,1.74.36,4.14-1.02,5.12l2.56,3.58c1.75-2.36,3.33-.07,5.63,0,.6,2.03-.56,2.61-1.02,3.58-.87,1.86-2.66,4.34-4.6,5.63-2.82,1.87-8.65,3.16-12.28,4.09-8.11,2.09-16.31,2.73-25.58,2.05-5.88-.43-13.56-2.03-19.44-3.07-7.66-1.36-12.86-3.09-20.46-5.12-3.13-.84-4.57.71-7.16,1.02-6.75.83-13.51-.21-20.46,1.02-5.22.93-11.15,1.84-16.37,3.07-7.85,1.84-10.27,3.08-17.39,7.16-9.07,5.2-18.95,9.18-27.63,13.3-7.04,3.34-13.71,7.65-20.46,10.23-.84.32-2.25-.54-3.07,1.02-.77,0-3.36-2.66-4.09-3.07-.48-.27-1.34.19-1.53,0s.27-1.05,0-1.53c-.39-.71-1.61-1.32-2.05-2.05-.7-1.16-.7-2.95-1.02-4.09-.12-.42-.95-.64-1.02-1.02-.39-2.19-.44-14.34,0-16.37.08-.37,1.75-2.44,2.05-3.07.24-.51-.19-1.37,0-2.05.08-.3,2.5-4.16,3.07-5.12s2.81-2.89,3.07-4.09c.31-1.43.24-6.59,0-8.19-.3-2.02-2.63-5.47-2.05-8.19l-3.07-6.65c-1.98.58-2.36-1.33-3.58-2.05-1.77-1.03-3.41-2.03-5.12-3.07-5.67-3.46-12.2-4.54-18.42-7.16-5.09-2.14-9.19-4.43-12.79-8.7,0-2.31-.57-4.28,1.53-5.63.26-.16.81.15,1.02,0,1.02-.72,8.53-8.1,8.7-8.7.67-2.41-1.14-5.54-3.07-7.16l-6.14-26.09,16.37-1.02c-.64-2.02.65-2.7,1.02-3.58,1.25-2.97,3.37-5.7,4.09-8.19.25-.83-.21-2.15,0-3.07.09-.39,1.61-1.02,1.02-3.07-1.42-1.52-3.53-2.71-5.63-2.56-1.66-1.98-4-2.46-5.63-4.6-.15-.2.17-.77,0-1.02-.47-.7-1.91-1.58-2.05-2.05-.33-1.2.21-3.2,0-4.6,3.14-.4,6.07-2.88,8.7-5.12,3.62.3,7.72-.41,11.25,0,1.59.18,1.96,1.31,3.58,1.02.76-.71-2.48-4.62-3.07-5.63-1.31-2.22-2.72-4.87-4.09-7.16-.61-1.02-1.25-2.17-2.05-3.07v-1.02c1.71-2.13,4.59-4.02,6.14-6.14.15-.21-.16-.78,0-1.02,1.04-1.54,2.77-1.82,2.05-4.6-2.46.69-4.3-3.71-5.63-4.09-.64-.18-1.44.19-2.05,0-2.89-.92-3.89-1.75-7.16,0-.84-1.53-2.07-.74-3.07-1.02-.25-.07-3.51-3.34-3.58-3.58-.18-.64.19-1.44,0-2.05-.13-.42-.95-.64-1.02-1.02-.27-1.49-.23-5.6,0-7.16.05-.38.93-.62,1.02-1.02.2-.93-.24-2.22,0-3.07.3-1.07,4.38-8.23,5.12-9.21,2.6-3.46,6.01-4.81,9.21-7.16-1.36-1.13-1.42-5.35-1.02-7.16.08-.38.85-.58,1.02-1.02.28-.69.75-2.64,1.02-3.07.41-.62,4.29-4.52,4.6-4.6,2.44-.68,3.62.94,4.09,1.02,2.25.4,2.83.3,5.12,1.02.85.28,3.1-.21,3.58,1.53.61,2.24-.5,5.68,2.56,7.67.34,0,.63-.96,1.02-1.02,2.03-.34,9.26-.35,11.25,0,.4.07.91,1.59,2.56,1.02-.33-2.23.53-5.87,2.56-7.16.27-.16.82.14,1.02,0,.69-.49,1.6-1.92,2.05-2.05,1.61-.44,4.52.44,6.14,0,.58-.16,3.93-4.62,4.6-5.63.28-.41.75-2.65,1.02-3.07,2.19-3.29,6.61-5.37,9.72-7.67,1.03,1.23,2.62,1.03,3.58,2.56.18.29-.13.86,0,1.02,1.11,1.33,3.35,2.84,4.09,4.09.18.31-.13,1.52,1.02,2.05.92,3.04-3.65,4.6-4.09,6.14-.19.68.24,1.52,0,2.05-.54,1.21-2.98,3.8-3.07,4.09-.36,1.21.44,3.29,1.53,3.58s9,.27,10.23,0,3.12-2.41,4.09-3.07c2.6-1.74,5.59-3.48,8.19-5.12,1.18-.75,2.5-2.36,4.09-3.07h1.02c1.07.83,2.02,2.37,3.07,3.07.42.28,2.63.74,3.07,1.02,1.38.89,2.52,3.53,2.56,5.12Z"/>
  </g>
</svg>