<?xml version="1.0" encoding="UTF-8"?>
<svg id="Calque_2" data-name="Calque 2" xmlns="http://www.w3.org/2000/svg" viewBox="0 0 251 244.03">
  <defs>
    <style>
      .cls-1 {
        fill: none;
        stroke: #000;
        stroke-miterlimit: 10;
      }
    </style>
  </defs>
  <g id="Calque_1-2" data-name="Calque 1">
    <path class="cls-1" d="M44.35,1.22c-.19.04-.37.13-.54.26-.34.59-.43,1.43-.25,2.17,0,.66-.21,1.18-.58,1.64-.81.78-1.7,1.34-2.63,1.64-.7.86-1.44,1.69-2.21,2.5-.16.12-.34.14-.5.07-.54-.36-1.09-.69-1.67-.99-.68.78-1.39,1.52-2.13,2.23-.12.19-.16.46-.13.72.4.85.75,1.73,1.04,2.63.1.63.15,1.27.17,1.9.09.27.23.51.42.72v.33c-.65.68-1.38,1.27-2.17,1.77l-.25.46c-.21,1.2-.56,2.37-1.04,3.48-.63.92-1.33,1.71-2.08,2.36-.19.16-.41.23-.63.2-1.1-.05-2.19-.4-3.21-1.05-.28-.06-.56-.06-.83,0-.71.2-.88.59-.54,1.25.75.72.63,1.25-.29,1.64-1.18-.55-2.35-1.11-3.5-1.71-1.07-.31-2.09-.75-3.04-1.31-.33-.09-.66-.16-1-.2-1.7.31-3.38.7-5.04,1.18-.13,1.27-.38,2.52-.75,3.74l.25,3.02c.23.87.51,1.73.83,2.56.18,1.46.18,2.94,0,4.4-.57,2.42-.66,5.05-.25,7.55,0,.66-.33,1.05-.92,1.18l-5.54.2c-.34.06-.67.12-1,.2-.22.03-.44.14-.63.33-.03.35-.07.7-.13,1.05.12.74.32,1.47.58,2.17.13.55.21,1.13.25,1.71-.14,1.21-.33,2.42-.58,3.61-.06.3-.06.62,0,.92.26.88.54,1.76.83,2.63,0,3.28.96,6.3,2.79,9.06-.09.9-.39,1.72-.83,2.3,0,.2.13.33.29.4.71.07,1.42,0,2.08-.33.33-.26.67-.48,1.04-.66.92-.33,1.63,0,2.08.85,0,.56.1,1.11.25,1.64l1.83,1.25c1.88.66,3.71.53,5.42-.53.12.06.25.1.38.13.71.66,1.25,1.51,1.67,2.43.13,0,.25,0,.38.13l2.25-.92c.32.09.63.27.92.53.19.05.39.1.58.13.38-.15.78-.2,1.17-.13.83.46.96,1.05.21,1.71.06.54.1,1.09.13,1.64-.85,1.34-1.38,3.11-1.5,4.99-.68,1.38-1.47,2.7-2.38,3.94-1.27,1.42-2.51,2.86-3.71,4.33l-3.13,2.96c-.48.58-.91,1.2-1.29,1.84-.76,1.98-1.59,3.93-2.5,5.84-.19.58-.31,1.17-.38,1.77-.43.5-.8,1.05-1.08,1.64-.32,1.22-.63,2.44-.92,3.68-1.33,2.73-3.14,4.79-5.21,5.91-.33-.2-.63-.07-.83.2-.46.13-.92.24-1.38.33-.55.32-1.02.92-1.33,1.71-.29,1.05,0,1.97.83,2.69l2.92,1.18c.34.28.64.58.92.92,1.21,2.26,2.63,4.39,4.25,6.37.49.64.87,1.45,1.13,2.36.09,1.01.21,2.02.38,3.02.12.5.3.99.54,1.45,2.69,3.68,5.56,7.23,8.59,10.64,2.89,4.02,5.81,8.03,8.75,12.01-.21.48-.31,1.06-.29,1.64l3.04,3.94c.13.2.22.42.25.66-.21.59-.58.92-1.25.99l-2.38.13c-.47.02-.93.22-1.33.59-.8,1.13-1.71,2.19-2.71,3.15-.3.15-.61.23-.92.26l-1.75.2c-.29.06-.57.15-.83.26-1.46.85-2.42,2.04-2.92,3.68-.38,1.46-.62,2.96-.71,4.47-.31,2.11.07,4.32,1,5.91l2.08,2.89c.13.4,0,.66-.42.85-1,.46-2,.9-3,1.31-.8.62-1.67,1.15-2.59,1.58-2.43.98-4.83,2.01-7.21,3.09-1.32.5-2.67.92-4.04,1.25-1.16.46-2.33.9-3.5,1.31v.4c.77.21,1.53.42,2.29.66.63.41,1.32.72,2.04.92,1.19.18,2.39.26,3.59.26l1.29.79c1.7.41,3.33,1.03,4.88,1.84,1.1.73,2.24,1.39,3.42,1.97,1.4.49,2.77,1.08,4.09,1.77,1.67.96,3.3,1.99,4.88,3.09l3.34.99c.69.3,1.36.65,2,1.05l4.79,3.28c6.47,3.75,12.7,7.92,18.63,12.47l8.88,7.55,8.63,8.6h.58c4-4.01,7.99-8.04,11.96-12.08,1.43-1.36,3.01-2.55,4.71-3.55,3.88-1.97,8-3.09,12.38-3.28.94-.34,1.83-.78,2.67-1.31l1.25.92c.67.1,1.33.34,1.96.72l2.04,1.71c.94.08,1.87-.29,2.67-1.05,1.27-1.17,2.5-2.38,3.71-3.61,1.42-.98,2.96-1.43,4.5-1.31.25-.41.53-.76.83-1.05.58-.41,1.14-.9,1.67-1.45.71-1.06,1.49-2.07,2.33-3.02.62-.7,1.29-1.28,2-1.71,2.08-.13,4.21-.2,6.34-.2.63-.19,1.23-.6,1.75-1.18.46-.26.83-.13,1.08.33.29.59.5,1.18.75,1.84,1.15,1.77,2.31,3.52,3.5,5.25,1.05,1.14,2,2.37,2.84,3.68.83.92,1.88,1.51,3.09,1.64.25,0,.42-.07.5-.26-.1-.53-.13-1.09-.08-1.64l1.21-2.04c0-.6-.05-1.19-.17-1.77.86-1.23,1.81-2.39,2.84-3.48.21-.26.33-.53.33-.85-.75.27-1.49.62-2.21,1.05-1.13-.2-1.58-.85-1.29-1.97,0-.23-.05-.46-.13-.66-.41-.38-.76-.83-1.04-1.31-.07-1.01-.13-2.01-.17-3.02l-.33-.33c-1.25.13-2.21-.33-2.79-1.38-.08-.33-.04-.66.08-.85.35-.31.72-.6,1.08-.85.33-.66.29-1.25-.08-1.84-.29-.35-.57-.73-.83-1.12.57-.54,1.17-1,1.79-1.38.92-.85,1.08-1.84.5-2.96-.17-.2-.37-.32-.58-.33-1.41.26-2.83.39-4.25.4-.35-.18-.67-.44-.96-.79-.04-.2,0-.46.08-.66.49-.84,1.04-1.63,1.67-2.36.14-.23.26-.5.33-.79-.33-.96-.82-1.76-1.42-2.3-.06-.14-.06-.32,0-.46,1.04-1.11,2.3-1.6,3.54-1.38.25-.4.38-.79.38-1.31-1.34-.05-2.68-.25-4-.59-.19-.1-.36-.23-.5-.4-.42-.66-.42-1.45-.08-2.23.83-1.36,1.49-2.82,1.96-4.33.15-1.85.15-3.73,0-5.58.08-.46.29-.92.67-1.31.49-.33.96-.7,1.42-1.12.38-.67.8-1.28,1.25-1.84.05-.17.05-.36,0-.53-.58-.4-.75-.92-.5-1.58.31-.5.58-1.03.79-1.58-1.61-1.37-2.92-3.47-3.75-6.04.44-.4.85-.83,1.25-1.31.21-.26.29-.66.25-.92l-3.04-3.61c.04-.66.42-1.05,1.04-1.18.83.13,1.5.59,2,1.31,1.42,2.04,2.96,4.01,4.63,5.91h.75c.43-.22.88-.39,1.33-.53.17.05.33.1.5.13.77.52,1.48,1.12,2.13,1.77.23.1.47.14.71.13l1.33-.2c.37.08.75.12,1.13.13l.25-.07c.21-.33.47-.58.75-.72.71-.13,1.29.13,1.67.79.92,1.84,2.13,3.41,3.67,4.79l1.58.2c.38.14.72.49.96.99.66.77,1.44,1.27,2.25,1.45.5.07.71-.13.67-.66-.06-.56-.15-1.1-.25-1.64-1.52-1.03-3.05-2.02-4.59-2.96-.39-.33-.77-.7-1.13-1.12-.29-.38-.47-.92-.5-1.51.05-.69.17-1.36.38-1.97-.02-.18-.08-.34-.17-.46-1.41-2.02-2.94-3.8-4.59-5.32.57-.51,1.13-1.04,1.67-1.58.13-.26.13-.53.08-.79-.16-.24-.32-.46-.5-.66.3-.43.63-.79,1-1.05,1.31.62,2.52,1.72,3.5,3.22.33.07.67.12,1,.13l3.42,2.96.42.13c1.12-.2,2.23-.6,3.29-1.18l.08-.26c-.17-.74-.46-1.45-.83-2.1-1.01-.26-1.99-.75-2.92-1.45l-1.63-.26c-.25-.07-.5-.16-.75-.26-.71-.5-1.34-1.09-1.88-1.77-.08-.13-.08-.26,0-.4.51-.61,1.04-1.18,1.58-1.71.23-.17.46-.28.71-.33l1.96.99c.25.1.5.15.75.13-.17-.57-.37-1.12-.58-1.64-.11-.56-.18-1.13-.21-1.71-.46-.66-.63-1.38-.42-2.17.13-.66.29-1.18.46-1.71-.15-.35-.2-.78-.13-1.18.21-.46.5-.66.96-.53,1.02.84,1.87,2.11,2.46,3.68.31.2.65.2.96,0,.63-.79.71-1.64.25-2.63-.66-.79-1.3-1.62-1.92-2.5.82-.8,1.84-.9,2.71-.26.57.52,1.15,1.02,1.75,1.51.46-.35.88-.74,1.25-1.18.57-.52,1.23-.71,1.88-.53,1.25.66,2.21,1.45,3,2.63.06.14.06.32,0,.46-.24.7-.45,1.42-.63,2.17l.04.4c.13.46.42.66.83.66.04-.26.17-.4.42-.46.31.23.59.5.83.79h.54c.29-.42.57-.86.83-1.31.28-.31.64-.38.96-.2.42.4.71.79.96,1.31.47-.38.89-.82,1.25-1.31.46,0,.92.13,1.38.4,1.21,1.12,1.92,2.56,2.08,4.2.38.07.63,0,.83-.4.27-.61.6-1.18,1-1.71.39-.52.91-.76,1.42-.66.28.22.59.4.92.53.54,0,1.04,0,1.58.13.75.33,1.21.85,1.42,1.64.12,1.06.3,2.11.54,3.15.08.46.33.66.83.59.21-.19.45-.34.71-.46,1.46-.18,2.91-.55,4.34-1.12.21-.07.33-.26.38-.46-.32-.51-.64-1.01-.96-1.51-.48-1.63-.92-3.29-1.29-4.99-.27-.63-.62-1.23-1.04-1.77-.52-.42-1.05-.79-1.58-1.12-.54-.45-1.01-1.08-1.38-1.84l-2.38-2.17c-.21-.47-.45-.91-.71-1.31l-1.38-.33c-1.36-.76-2.65-1.79-3.84-3.09-.3-.34-.52-.82-.63-1.38-.16-1.47-.44-2.91-.83-4.27-.58-1.27-1.11-2.56-1.58-3.87-.04-.55,0-1.1.13-1.64,0-.72.33-1.31.96-1.71.93-.07,1.84-.25,2.75-.53l5.09,1.45c1.11.18,2.22.25,3.34.2.21-.06.41-.2.58-.4.59-1.09,1.26-2.06,2-2.89.03-.7.1-1.41.21-2.1.21-.46.54-.79,1-.92.42.26.92.33,1.46.2,4.31-2.29,8.57-4.66,12.8-7.09.49-.21,1-.14,1.46.2,1.36,1.27,2.89,2.36,4.54,3.22.59.06,1.17.15,1.75.26,1.36,1.22,2.7,2.46,4,3.74,1.54,2.04,3.21,3.94,5.09,5.71.83,1,1.62,2.03,2.38,3.09l1.33,1.31,5,3.28.79.72c.42.66.83,1.25,1.33,1.77.45.19.91.35,1.38.46.13,0,.17-.13.17-.26-.42-1.18-.04-1.97,1.04-2.63l2.67.26v-.66c-1.26-.82-2.56-1.5-3.88-2.04-.38-.26-.73-.62-1.04-1.05-.04-.26,0-.46.25-.59.17-.46.4-.9.67-1.31.58-.72,1.25-1.37,2-1.9.08-.2.04-.46-.13-.66-1.58-.46-2.5-1.58-2.75-3.22-.19-.11-.4-.11-.58,0l-1.54,1.05c-.34-.23-.69-.42-1.04-.59-.75.28-1.49.59-2.21.92-1.4-.23-2.76-.81-4.04-1.71l-2.29-2.1c-.91-.74-1.88-1.3-2.88-1.64-1.53-.08-3.02-.83-4.29-2.17-.13-.2-.17-.46-.08-.66.68-.7,1.37-1.36,2.08-1.97.56-.04,1.12,0,1.67.13.18,0,.35-.07.5-.2l.33-2.63c-.02-.24-.08-.47-.17-.66-.51-.7-1.13-1.16-1.79-1.31-1.01-.35-2.02-.66-3.04-.92l-2.59-1.31c-.89-.23-1.78-.45-2.67-.66-1.43-.21-2.76-1.21-3.75-2.82h-.5l-1.38,1.38c-.28.06-.56.06-.83,0-.55-.22-1.11-.41-1.67-.59l-.42.13c-.91.52-1.75,1.27-2.5,2.23h-.21c-.26-.1-.5-.28-.71-.53-.66-1.14-1.45-2.08-2.33-2.76-.72-.52-1.5-.81-2.29-.85-.79-.41-1.51-.94-2.13-1.58-.58-.02-1.16.21-1.67.66-.56.56-1.08,1.22-1.54,1.97-.04.13-.17.2-.29.2-1.03-.59-2.12-1.05-3.25-1.38-.18.06-.36.11-.54.13-.64.55-1.41.55-2.04,0l-3.5-2.96c-.56-.51-1.21-.65-1.83-.4-.4.21-.78.52-1.13.92-.36.21-.74.39-1.13.53-.83-.69-1.78-.96-2.71-.79-.13.04-.24.13-.33.26-.66.98-1.42,1.78-2.25,2.36-.42-.28-.8-.61-1.13-.99-.35-.19-.72-.24-1.08-.13-.5.26-.99.57-1.46.92.18.45.26.98.21,1.51-.21.33-.47.58-.75.72l-1.88-1.71c-.94-.58-1.95-.83-2.96-.72-.54-.13-.96-.46-1.17-.99-.53-1.37-.55-3.08-.04-4.47,0-.14-.05-.28-.13-.4-.36-.12-.72-.14-1.08-.07-.58.16-1.14.38-1.67.66-.39,0-.76-.25-1.04-.66-.11-.34-.19-.69-.25-1.05.14-.64.14-1.33,0-1.97-.34-.39-.66-.83-.96-1.31-.07-.5-.07-1.01,0-1.51.16-.54.25-1.09.29-1.64l-.13-.2c-1.87.1-3.73-.22-5.54-.92-1.28-.73-2.47-1.61-3.54-2.63-.18-.21-.32-.48-.42-.79,0-.81-.19-1.59-.5-2.23l-1.96-2.1c.59-2.34,1.14-4.68,1.67-7.03.17-.97.17-1.99,0-2.96-.91-.65-1.85-1.24-2.84-1.77-.73-.23-1.47-.38-2.21-.46-.22-.09-.43-.2-.63-.33l-2.25-2.63c-.08-.2-.04-.33.08-.53.31-.3.63-.58.96-.85.49-.24.94-.62,1.33-1.12-.13-.58-.24-1.18-.33-1.77.04-.79.42-1.38,1.04-1.84.36-.26.77-.26,1.13,0,.21-.13.21-.4,0-.66l-1.38-1.31c-.24-.34-.39-.81-.42-1.31,0-.72.29-1.31.83-1.64.73.54,1.53.76,2.33.66l.17-.13c0-1.1.08-2.2.25-3.28.22-.58.5-1.13.83-1.64-.05-.11-.13-.18-.21-.2-.86-.05-1.71-.34-2.5-.85-.89-.94-1.83-1.82-2.84-2.63-1.41-.78-2.75-1.68-4-2.69-1.08-1.2-2.19-2.32-3.34-3.35-.42-.55-.77-1.14-1.04-1.77l-.63-2.5c-2.12-1-3.96-3.08-5.25-5.91l-1.25-1.31c-.08-.26-.21-.53-.21-.79.21-.87.35-1.77.42-2.69,0-1.51-.67-1.97-2.08-1.38-.83.88-1.73,1.58-2.67,2.1-.63.26-1.17.07-1.58-.53-.24-.41-.49-.81-.75-1.18-.1-.06-.19-.1-.29-.13-1.04.4-2.02,1.07-2.92,1.97-.71.96-1.4,1.92-2.08,2.89-.22.08-.45.06-.67-.07-.54-.52-1.02-1.19-1.42-1.97-.21-.07-.42,0-.54.13-.17.53-.39,1.03-.67,1.51-.3.35-.64.62-1,.79-.98-.42-1.95-.86-2.92-1.31-1.17.04-2.34.13-3.5.26-1.37.35-2.7,1.06-3.92,2.1.11,1.27.2,2.54.25,3.81,0,.66-.06,1.32-.21,1.97-.24-.17-.44-.4-.58-.66-.14-1.83-.37-3.64-.67-5.45-.75-.51-1.4-1.16-1.92-1.9-.67-1.29-1.19-2.66-1.54-4.07-.18-.09-.37-.09-.54,0-.86.25-1.72.47-2.59.66-.18.15-.32.33-.42.53-.13.66,0,1.18.29,1.71,1.15.91,2.07,2.38,2.63,4.2-.04.21-.13.41-.25.59-.7.67-1.51,1.02-2.33.99-1.51,0-3.01-.1-4.5-.33-1.4.03-2.79.47-4.09,1.31-.13.07-.17.2-.17.4.13.36.27.71.42,1.05.49,2.21.27,4.65-.58,6.57-.08.46-.42.72-.83.85-.96-.27-1.87-.8-2.71-1.58-.26-.13-.54-.22-.83-.26-1.53.24-3.06.5-4.59.79-.36-.05-.69-.28-.96-.66-.38-.77-.64-1.67-.75-2.63,0-.26-.17-.46-.33-.59-.75-.19-1.46-.69-2.04-1.45h-.42c-.84.69-1.82.79-2.71.26l-2.67-3.02h-.46c-.09.19-.1.44-.04.66.67,1.16,1.29,2.34,1.88,3.55.23.6.43,1.22.58,1.84.1,1.23.39,2.4.83,3.41.46.65,1,1.24,1.58,1.77.42.33.83.33,1.25,0,.63.2,1.08.66,1.38,1.31.12.67.18,1.35.21,2.04.42.63.91,1.2,1.46,1.71.5.72.33,1.45-.42,1.97-.24.19-.52.19-.75,0-.83-.72-1.25-1.71-1.25-2.82l-.13-.26c-1.22.17-2.44.23-3.67.2-.59-.32-1.22-.54-1.88-.66-.41-.2-.76-.49-1.04-.85-1.66-2.09-3.65-3.45-5.75-3.94-.33-.13-.42-.26-.46-.59-.07-.62-.16-1.23-.29-1.84l-.92-1.31c-.55-1.22-1.22-2.39-2-3.48-.2-.26-.45-.4-.71-.4-.74.25-1.5.34-2.25.26-.42-.2-.71-.46-.88-.85-.18-4.18-.18-8.36,0-12.54.17-.4.42-.66.83-.79,1.06.06,2.12-.16,3.13-.66,1.22-.84,2.41-1.74,3.54-2.69.1-.25.14-.52.13-.79-.18-.82-.21-1.71-.08-2.56-.08-.18-.16-.36-.25-.53-.37-.24-.74-.46-1.13-.66l-1.5-1.31c-.69-.23-1.39-.45-2.08-.66-.54-.26-1.07-.55-1.58-.85-.3-.06-.62-.06-.92,0-.9.21-1.78.66-2.59,1.31-.25.13-.42.13-.67,0-.36-.15-.74-.26-1.13-.33-.45.17-.92.21-1.38.13-.15-.1-.29-.21-.42-.33-.28-.47-.6-.9-.96-1.31-1.45-.32-2.89-.64-4.34-.99-.19-.04-.39-.04-.58,0v-.07l.02-.03.06.15h0Z"/>
  </g>
</svg>