<?xml version="1.0" encoding="UTF-8"?>
<svg id="Calque_2" data-name="Calque 2" xmlns="http://www.w3.org/2000/svg" viewBox="0 0 251 162.52">
  <defs>
    <style>
      .cls-1 {
        fill: none;
        stroke: #000;
        stroke-miterlimit: 10;
      }
    </style>
  </defs>
  <g id="Calque_1-2" data-name="Calque 1">
    <path class="cls-1" d="M143.81,13.36h0M99.11.5l-3.09,7.19c5.18,3.05,10.79,5.87,16.85,5.87.7,0,1.41-.04,2.13-.12l.88,5.97-3.45.93,1.82,5.99,4.25-.79v2.91l-1.74.97.92,2.17c1.28-.2,2.42-.5,3.47-.5,1.21,0,2.31.4,3.38,1.81-1.85,1.46-1.86,3.44-1.7,5.65-1.28-.08-2.55-.12-3.82-.12-9.49,0-18.83,2.04-28.29,2.72l.1,5.5-3.47,1.37-1.84-5.14-8.39,4.23-4.06-2.44-4.57,4.2c-1.06-1.09-2.14-1.39-3.13-1.39-1.32,0-2.5.54-3.34.54-.11,0-.21,0-.31-.03-1.05-.22-.95-2.36-1.94-2.55h-.15c-.6,0-1.49.54-2.12.54-.06,0-.12,0-.17-.02-1.47-.28-2.51-1.03-3.61-1.03-.84,0-1.72.44-2.87,1.86,1.92,4.46,15.8,15.11,3.89,15.26h-.11c-8.45,0-11.14-11.9-15.56-17.38-.72-.89-1.26-1.84-2.44-1.84-.17,0-.35.02-.54.06,3.12,2.15-2.3,13.03-3.59,13.81-.09.06-.21.08-.35.08-.68,0-1.84-.56-2.72-.56-.57,0-1.02.23-1.15.99-.5,2.84,5,1.76,4.33,4.75-.86-.36-1.71-.51-2.53-.51-3.69,0-7,2.92-9.25,3.12-.14.01-.27.02-.4.02-1.47,0-2.53-.71-3.75-.71-.57,0-1.18.16-1.88.62-6.9,4.52-6.26,12.88-9.06,19.62-.75,1.82-5.21,8.15-5.21,8.66,0,.74.29.99.69.99s.95-.26,1.48-.53c1.72-.87,3.34-2.52,5.28-3.41,5.37-2.46,9.68-3.57,14.72-7.36.84-.63,3.29-3.99,3.56-4.04.25-.04.49-.06.72-.06,2.37,0,3.49,2.17,5.4,2.57.37.08.71.11,1.03.11,2.95,0,3.82-3.12,5.71-5.18,3.28,2.35,5.23,5.92,9.02,5.92.57,0,1.18-.08,1.84-.26,3.16-.84,6.01-3,8.66-3,1.99,0,3.87,1.22,5.69,5.13l5.16-2.39c2.21,1.07,2.9,4.27,5.03,5.27.18.08.36.12.54.12.67,0,1.4-.44,2.58-.44,1,0,2.33.32,4.22,1.52,3.48,2.21,5.2,2.08,6.94,3.09.53.31,2.12,4,3.67,4.63.1.03.2.04.29.04.89,0,1.44-1.27,2.42-1.27.05,0,.1,0,.15.01.44.06,8.03,2.67,8.4,2.92,1.48.97,1.42,3.15,3.38,3.15.28,0,.6-.04.98-.14.84.81-3.47,5.12-.88,6.53.19-.01.38-.02.58-.02,6.24,0,17.62,6.68,21.15,11.25,2.36,3.06,2.89,7.77,4.4,11.21,2.43,5.54,7.97,9.21,2.51,15.26l3.91-1.76h0c2.21,0,3.25,4.14,6.97,4.14.75,0,1.61-.17,2.6-.57,1.01-.41,6.13-4.32,6.36-4.99.75-2.22-1.95-8.96.92-12.08l6.11-.36.44,6.95c2.23-3.41,5.67-6.8,9.96-6.93.17,3.63,1.76,4.5,4.35,6.5-1.27.95-3.92.43-3.46,3.02,1.23.57,2.23.8,3.13.8,2.03,0,3.53-1.19,5.85-2.44l5.75,5.57-6.05,2.59,3.32,1.42.07,8.03,3.51,1.83c.04,1.75-8.24,2.04,1.74,5.64v-4.33l3.47.86v-4.34l2.58.02.91,4.33c.14.02.28.02.42.02,3.65,0,4.25-5.38,3.99-8.28-.19-2.08-1.92-3.23-1.84-5.11.08-1.87,2.03-3.64,2.45-5.53.39-1.71-.6-4.3.17-6.27.93.4,1.74.8,2.47.8.65,0,1.25-.32,1.85-1.23-.92-1-2.22-2.26-2.43-3.65-1.33-8.87,11.49-18.92,13.96-26.57.93-2.89-2.14-8.16,3.69-9.25.7-.13,1.92-.18,3.46-.18,3.62,0,9.02.25,13.56.25s7.88-.23,8.41-1.13c.4-.67-.11-1.93.14-2.66.38-1.13,2.45,0,1.72-2.38-.5.17-.97.24-1.41.24-2.7,0-4.62-2.63-6.9-2.85-16.94-1.63-21.46-1.08-38.35-6.7-5.15-1.71-10.68-2.76-15.82-4.58-.35-1.55.53-1.85,1.76-1.85.74,0,1.6.11,2.4.11.47,0,.92-.04,1.31-.15,3.28-.98,3.51-6.5,3.21-9.38l-6.46.9c-.31-1.16-.68-1.42-1.12-1.42-.36,0-.76.17-1.22.17-.35,0-.74-.1-1.16-.47-3.88-3.43-4.25-9.86-5.86-14.17-1.94-5.18-6.84-8.74-6.78-14.48l-3.44-.04c.78-1.88.48-4.64,1.08-6.29.56-1.55,2.44-2.41,2.82-4,.51-2.19-1.72-6.24-1.3-8.79-.14-.04-.28-.05-.43-.05-2.84,0-5.42,6.93-6.21,7.05l-9.85-1.8c1.88-3.86-.98-3.2-.95-4.72.02-1.35.97-2.59.95-3.95l-5.23.49-.84-3.97c-.43-.02-.82-.04-1.19-.04-5.31,0-3.7,2.47-4.93,5.48-.32.78-1.52.63-1.66,1.24-.42,1.74.21,4.04-.02,5.9-.41.4-.74.57-1,.57-.88,0-1.11-1.83-1.99-2.75-2.98-3.12-6.11-6.11-9.62-8.64l-1.36,1.59-1.63.12c-.72-3.54-4.61-4.81-2.62-8.66l-25.49-.75h.1,0Z"/>
  </g>
</svg>